<mxfile host="65bd71144e">
    <diagram id="SgKbG0KkewGrxSvZJ8Ew" name="Page-1">
        <mxGraphModel dx="2742" dy="925" grid="1" gridSize="10" guides="1" tooltips="1" connect="1" arrows="1" fold="1" page="1" pageScale="1" pageWidth="1100" pageHeight="850" math="0" shadow="0">
            <root>
                <mxCell id="0"/>
                <mxCell id="1" parent="0"/>
                <mxCell id="9" value="" style="shape=stencil(fZbdcgIhDIWfZm8zQAg/17Z9j85U606tdqz9e/tmZ0c0uJ47xP0I5JwEBl59bp8/1kNwn6fj4W39M76ctgM/DCGM++36OJ50NPDjwKvN4bh+PR6+9i/z74/n6ctp9H74nlb4nbmSKZeJCu5vngmZ6jzzNAO7cX8FVKEsBuBKrgKg9oAE8gkCbLeUhEoEQKSUDZDLeWYRKIl8MEDRmHwfyBrBG6Amyu4+kDxxMoB3jhwgYu7TVAsVkFcWCs4CTBEoF4RctKeOxHIf8IXYpikHikAIf+MNUW94AGSSaoAoFIE3AlOyeWU+p2E5S9yfQZcQILVuQOwZdJNoS9Ls3wA5u2XZTIHECqeJ9kDpSaauRiNVcAY1QhdBzeLBli5WazpkSsBLV25uRaqWRyFawTQzRRIQYirJzq5atkBqLfouwqUxLBepthWb10vrWZY6UOAeyKCCtDV625mm9gmUC4Wc3VLJMMIE1BsA2FW9JraVlQB7n3c9oMKhCLEvIM1zBPZ25/umNQ1tVEC2G+fFCC8g398O2hNQuQlVu752DBfA+q0ptnqO5JFmeuIuo9DY7KjY71UxdJV4EntifPWorW++R/dC4t7V3DlIB5cHx2bc7eb3yvX//QNFp+bHDT/+Aw==);lineShape=1;" parent="1" vertex="1">
                    <mxGeometry x="23.82791595740713" y="16.495557907869838" width="0.4867228929286919" height="0.4859621058705936" as="geometry"/>
                </mxCell>
                <mxCell id="10" value="" style="shape=stencil(fZbdcgIhDIWfZm8zQAg/17Z9j85U606tdqz9e/tmZ0c0uJ47xP0I5JwEBl59bp8/1kNwn6fj4W39M76ctgM/DCGM++36OJ50NPDjwKvN4bh+PR6+9i/z74/n6ctp9H74nlb4nbmSKZeJCu5vngmZ6jzzNAO7cX8FVKEsBuBKrgKg9oAE8gkCbLeUhEoEQKSUDZDLeWYRKIl8MEDRmHwfyBrBG6Amyu4+kDxxMoB3jhwgYu7TVAsVkFcWCs4CTBEoF4RctKeOxHIf8IXYpikHikAIf+MNUW94AGSSaoAoFIE3AlOyeWU+p2E5S9yfQZcQILVuQOwZdJNoS9Ls3wA5u2XZTIHECqeJ9kDpSaauRiNVcAY1QhdBzeLBli5WazpkSsBLV25uRaqWRyFawTQzRRIQYirJzq5atkBqLfouwqUxLBepthWb10vrWZY6UOAeyKCCtDV625mm9gmUC4Wc3VLJMMIE1BsA2FW9JraVlQB7n3c9oMKhCLEvIM1zBPZ25/umNQ1tVEC2G+fFCC8g398O2hNQuQlVu752DBfA+q0ptnqO5JFmeuIuo9DY7KjY71UxdJV4EntifPWorW++R/dC4t7V3DlIB5cHx2bc7eb3yvX//QNFp+bHDT/+Aw==);lineShape=1;" parent="1" vertex="1">
                    <mxGeometry x="23.82791595740713" y="16.495557907869838" width="0.4867228929286919" height="0.4859621058705936" as="geometry"/>
                </mxCell>
                <mxCell id="11" value="Sell - Buy = difference" style="text;html=1;align=center;verticalAlign=middle;resizable=0;points=[];autosize=1;strokeColor=none;fillColor=none;" parent="1" vertex="1">
                    <mxGeometry x="-50" y="5" width="140" height="30" as="geometry"/>
                </mxCell>
                <mxCell id="12" value="" style="shape=stencil(fZbdcgIhDIWfZm8zQAg/17Z9j85U606tdqz9e/tmZ0c0uJ47xP0I5JwEBl59bp8/1kNwn6fj4W39M76ctgM/DCGM++36OJ50NPDjwKvN4bh+PR6+9i/z74/n6ctp9H74nlb4nbmSKZeJCu5vngmZ6jzzNAO7cX8FVKEsBuBKrgKg9oAE8gkCbLeUhEoEQKSUDZDLeWYRKIl8MEDRmHwfyBrBG6Amyu4+kDxxMoB3jhwgYu7TVAsVkFcWCs4CTBEoF4RctKeOxHIf8IXYpikHikAIf+MNUW94AGSSaoAoFIE3AlOyeWU+p2E5S9yfQZcQILVuQOwZdJNoS9Ls3wA5u2XZTIHECqeJ9kDpSaauRiNVcAY1QhdBzeLBli5WazpkSsBLV25uRaqWRyFawTQzRRIQYirJzq5atkBqLfouwqUxLBepthWb10vrWZY6UOAeyKCCtDV625mm9gmUC4Wc3VLJMMIE1BsA2FW9JraVlQB7n3c9oMKhCLEvIM1zBPZ25/umNQ1tVEC2G+fFCC8g398O2hNQuQlVu752DBfA+q0ptnqO5JFmeuIuo9DY7KjY71UxdJV4EntifPWorW++R/dC4t7V3DlIB5cHx2bc7eb3yvX//QNFp+bHDT/+Aw==);lineShape=1;" parent="1" vertex="1">
                    <mxGeometry x="79.30799560828609" y="53.33555964991494" width="0.4867228929288103" height="0.4859621058704988" as="geometry"/>
                </mxCell>
                <mxCell id="13" value="" style="shape=stencil(5VnLchNBDPwaX1Xz0LzOEP4jVRjiIiRUEl5/jxYzmx3J7rFvUNwcW50dSa0eSbuLb57vbr/sd8E9vzw9ftp/P7x/udvFt7sQDg93+6fDi3zaxZtdfPPh8Wn/8enx68P7499fbhfL5dPnx2/Lf/hxxHGlXBZUcD+P3zhq7fcX747294eHjX125NJgH8kxsK8U6mDPVP15+yL2PNhXcuW8fY0U82DvPbEDgExeAZhKgoCqAHJG4EIt/cQdEDyVCWCMqQQ1ZQxwIyARgyyID009oVAM8Am5jYDW43YS0Fz/fysvAiVwpBaJ/QhIlNETcv95BVTiCgBNZ5p9J9c5gMo0MzlwJO+cTgQX8oB9rVIauZGk3pDXJtVJCi4CABOPTqREHlRQ85TGCk2FApAAy43UiFEFxZ6nDsi+h+G0CDQKI11z7Ic8DWDyI/tyogT4vfw85kGEqoEaFRcVoIRetacBmeIoZHLIBpxOTHmMUilQNtKqpKtUOvIgSkKEMFKjBpg4ARQlxkwJkE+cVuQTsiDZEKo5BWidXecAcaTGK3/PAdIYJVGeAkpUAIqtojweOV10lKRoK3I6d6qtgEoRU4NZA+ATnPGhwZpmoUbRgAycjiKuXgMqyINcBypxG/U8iZA7LbarEHIx/znzhYfywv+r3C66giZxle7EZBolzlE1iUbMMPfPhHrOVI+oDoio6OqYAqk2WM+Gdw5Wp0QvaHukqj6RGwGLXoA7PQRNbAFElDHXm7stAFwl0oU4A0CqKk1FTRpQcDU7EyXUgaZAzaShIIExzZjkOaIjeaMXnhrIA2cqiklSe6DS2PWfN4AKqCoCo7o3AaBRZplE6jUAX0w1h+7Vmf5Qt90Tp7ORo0lUdY8xSRt3FlzIC7nZorZHxBM9baMeTajtm+kwcPHIkZIBwPI0kjQRAA7a6YnEyAidTJRgaxjMLYJVUsozmaYH9fSnAbgPU3ft5GL4S5se5cO86TFd0j/Z9PA1h/oPmx59ftzQO72CmkwMztQOHkmcHvQmM4/v0b5wqAqmIcFTW+ij8oVjYewrju3ciRqevrDYDLZo/M99H7eZnDNqCn0fe1eAhw5LycTRg2VNiSJUtMRnaR6QUpjCz3hPGrNOcvbkkLRIkZstDNIJXpubFZDh6knk0Y91sGwckJ5mvZCQm66CRLO5zNOqBecA5ap92wIYub2s9EBY2Sy32EMxEqfViCQDAWp5OHbmbBafaPUkB1CdsLALbayjWXwucxbwQU6syDdZD8e1XC5cQAtAlehkxb0AxsRJq4iiFKue23yGC+i4btdWQMROcy+X16u59wNnR8kRULDKON3OM0xbM+8ZYHNumO1hrRXdQnq85NVdiIfvbZbRaIy+6233aXvWjHNwklokvin7gPqu2BvqV3u0+hd/g7FH06mZsB2+D0xJOnjni7rnoOxnspWUPbpjl/eEVdmjWXn+XlE+vL6U/HC4vz++09z+rl9iylfHF6Dx5hc=);lineShape=1;" parent="1" vertex="1">
                    <mxGeometry x="-41.37793845996475" y="11.32850657493843" width="1.0668088512416793" height="14.27117341018415" as="geometry"/>
                </mxCell>
                <mxCell id="14" value="" style="shape=stencil(7VrJbhw3FPyauRLk4352nP8wYDkaRJEMWdn+PsUMejQsdpecUwBDt1GL1eTb6i3sU/zw7f7T17uT+W8vz0+/3v15/vxyf4o/nczOj/d3z+cX/DrFj6f44cvT890vz0+/P36+/P3101g5fv329Md4w18XXDQX20CZ//vyxJoL6d8nP18AD+fHG4BVV/sEiMn5IADmUp0AKbgqdgjVWZgB3fUmAOZynAC5uZiPAd3leYOSXClqvaf1xfl4vB6727y+umDH66tLkdf3fry+sM1Kc1koKDtLvL4JeWHQ5f1NnN9cL7w+Cf0H1zPLW5WBXVj034QHeZfo/NlVr9YHz/6QhEt752l9dF7oE++n8yAChD69K+QPkEjaq88RluHPVflbn/0z44TCn0NwZQak5II4UMiuzx4X62aTfQ+CgLNKI5SgaChtHHLlLXit8lEE5cxb4JkulBQD7wCeKcIrIGKYAcllZbXk4rz+6lf7UWyuzW6hzwOnCXNYBmwgwhJeXGczw44mVISwNTpRcF4QV4VR58gf3Kc8Nbo2A0a2EUqqxfXZkZJ3JqxQu2sEAL0KtTZkG4oe2/h+H5A2Mr9JT0pLre/kgyKip0dOCDVvT/YBddPJBoBURTGAXzivtS1N72/RXZkBeKKSYIdeKUC9Doi2hHQHzyvTRRdmb4KqVWKojb2pZZkJ4a/ElC24JiyBTBlmABzSC+JDVBO1wuWDiOocOTvXJCMC/k9BCqmiOFJE9UGAqy2PqDVEBkQBsMgZDoAgAOB2jgi/FTX7gMRqLW9ERGdAztK/UUWS0Mi6imjAdGV274SMJQBgOqqDU95MuQ/IW9l7BUSZUsB0iVKcl5VbXlLKG3SMyqXPtV7sMk3nwmrFDqoQyHCNJUMklXdBM6Sla0G6D+jO5nhIJgkfABIadjDVAPhFhiTLpVFA0g5FlqwAGBlOZ2rIUEnopl2jb2a6bfNExI2sOcc0AqgpQFkSb5B9CQ6Ql5guwg7DEehIXbo32u0yExloxgu1onfr1DtEmdrBS5SBoAblS6Mba2wH1U2iZKO0C2/tKj8s7I1SuYuIS0vKQgCphh7/zpWPpGRAyFMLhAAyJUNnS78FqFwmjiOppLgSmW3Esw/IXM1AKtX2jYQyy4DMreolACoZrshCFEdKs9DjFQpQuHSAs5iIaZzYU2eJSkAJ3bmNG42d2AExTdODeJ1XHHmrL3ykptwbjV9kLZkCLJaG3lRlDAB1EENvIimuO4wsqrS0NK/QmyLjoaUlRJWlhx2IZpLMonHNQEkXWG1rh2+OpIr11VuTSaHXeIBUpna4hstN+aPofiemq6TKlTWi7hUHL1FMR5kUdwGqy0qeBxvpOhE9EpoqsqzpHrU3TUBRBaqaz/ZKB5nY15QFwwleSmGpjPXcAe+jDhzOp8bi77X3D1V7K8P9ALX3qLQrA9SQHyJSxMF/kwLEZexdZIs/5hrEGn27KTgiAb6Y0bWGLTKUpG/fFhkAkFcztrHQjQwqP6C6p1K66ClczEz3xUstwQ4pMyArmgk8ooVao1DrOMDSZTU1yG5czZQsZ/d1ueDAK9RsptkWwTdDNVXzjfEqjbyaZL4xP11mulUI3Qtfa45pqPCl7pnue9iYal+GujHpdYe0MdXRgJZayzHPFzvUzvdGpUrWqHXLBrdzPnUDkZhbkcTUZdmYTBJrBDncLEtxMsp3BSgswygSVUKx5TouyisLcESZXWPQgspAZbkJMplFkT6IW0OSreWYTNJtVtDtceMeKDR5q7tWxmBbZQf0hbQD6kyVdsfkhDrFInfAAWwZ0GZ1s945A40hs76prTSVLltO2gcYuwbIWA1z3j+eeP94Yl7/P3w8IQg+LK1hlwOlZSaWTZb/r5fuNzGsBEBI8p13lpMSiLDeqqtrHFv6Nrt+4XEEaHPGgZqVE1nlOQYAcgrdWK2mW8lXqv1OQPSuFgbI8dCqVi8jPxoXI6+WOQLQYHx80qFkiDw5NO1LANCF3fhY6I0WZqZf2F5dUMSFv2B7OZD9r18cfgcAP14/cPxyfni4fB95+3/+IBKPLh9Txo//AA==);lineShape=1;" parent="1" vertex="1">
                    <mxGeometry x="-42.41942757956235" y="9.440062976266447" width="5.433311382689491" height="4.65006651615596" as="geometry"/>
                </mxCell>
                <mxCell id="15" value="" style="shape=stencil(7VzZbl03DPwavwral+e0/Y8ASRqjaRwk6fb3JWvo+Gh47igGCqRA/ZbYoq9EUuRwSN279OrL+9ef3t5F/+Xr54df3v5x/+br+7v0w12M9x/fv/18/1X+dZd+vEuv3j18fvvz54ffPr55/P+n17pS//Xrw+/6F/58lKvd9apS0f/1+BPv2vjnBz89rv9w//G0vgXn47I+up7I+uhSX9Znl9j65Ipf1hfXM1mfXVj/fnOl0fU1LeuHS56uH2NZH0QDbEPFxbYKiIY6FSh5FciuFSrQVxOE6goXwDN0FysRqM6vSg3DDaal6sLqRTG4zD8hrmYQPxpMrdWlsAqII7FDV5fXQ8fqGvOM6upquCh3g39CX8+QNnenulFWgcgt3ZwHAXGNSAXC6ktJTsXsIAKrllLnWzKHzt51rta0binLfQjUW+vq3jnzTxBHWJ0vtxmkbsWkAVsaPCh5N1bXKHHekEuBOqYjHAIS14hrSBhu640rxXly6NpchzgpliYXSAT8argiQYBoqYrhVjuUMXPFtUCZrjYFanCFWFoE/Hqna3KRCeSpxEMg0zstv4YwUw93vBZIbsCWmhtMSwnzidg+cwHwVvEulh9EIKyW1pzKPwFStCYxEr1VYHVvCQuZBAHd0voJ3dOk+GTXQyBONdzU0hr5eqJBQATyqtaeufOlmfdPAvQT4swGh4CkeqbW6EJCgcyCQMBgLAIs3FfRekUB5kty5XtGgUEOXQ409a0CJtzvtlRmFPrGQ5eMAGujVg29zzJcMTdu4xqSDSCxb5xPBCB69+MzrwUCxqUeJiC6FJCMBvCnDVeIWnOZce4Q6M4TtWZBeBCXmotEIIldjQDLogLNIaG0I4ldC0RMWSpA1CpIGyNfpe7dXPXPWS9HTmY9UyqGPV1PAmtCgKj4jB14JoLT+kJMIMCn43pmYz9x1LG+zKtxY733uJ6Vb1frA90/7idT/djzZlrHWH1KPUr2b+2VqH6sPyQKnsXfMq5vbP8ZgaoKEAPLiRGNJIoKpYhK7TlHloolGp16pqOEcF6NwDJIwGpVBcgZJAtiIOJmtnhn8wktGDtkmhCe4sJZgNEMDROzCERWcXdEVFpoEbVKgrECmWxJQGMyWmrk0CIwzHVm4fcpSZ7iRWRbChO8nwQq21KYSjxHPKIlOUM3IThygRBQgKlV7ACISqkNJtANh1YnxfSNvIQKMOajzF+fBVjR0xHvKLhgibab+9Am83gL5DVT9CSWmrsxXJsI6DqQDaRWRYBBsBRnbj0JVIao5AaDHQYlxWRLBQqGQPNhjqbSE6DKgnGeLMQZCrNPaAjBOocMgmwR/4sdCCqUcI+VXqdJUamX9T6MQHkJLatWww2uJSkNM3zCpkQv6EujUveuDYPA4Kyy3Djgh+QMjCQWAWTSA+Ua7Z0eftKVt1g0CDNiuMrS7jD1MI+tIoDuzZOiEnsgEGkQaN41KNw8TSiCBOCKSnhmJYP8vQjRe0zi4VZ+AJJY/gS7D1oIwhkSrcM0MIKWCk9ZDatVudOF89Y2arAMpHl64BkquQ/KEYCWAo2t4pvJ2IHxEuI51URvajiJEcY1WGKv1eDWTuNSMTT0JgMJMvYmZVHmo8wdnxM7Yz4yXqDG+zjKD9malSGBPNPHCcI1TlmFggIMGSspZpAxK+tFrRboMmRchtFSpmFGqXlTZdHYajjfHaucJ5w6Y2+WgQrSn2oH3j9Aw1XePyjGWytVq5wBt9R4yopIsGpoY2oNBns3agexNIaZRrWkxWtCAdaLEm/FgqNx984XLBGrgYrp2GlJw+JSNsQeB4ki0M0VZXaQO40FR5lg4pZa0Q6Zo8ph1Jpnp/MWu49bOoYX/h2BZntRhee4YPjSQumibtqUOipAtjTsPEel9cMYhtfg9yF4SyIOCvpGN30ZDpiGuRCa64mpBTkjJDty/S2wAR1pRbqMCakY73vbERtAnfZBG8ziTBBcBd4zy0k9AN6nn8DCd8X2r56B459icCitmsyEhhiu8a46sJubvoyWKHBHO7V0s83ZOr3rluEQJTbOqkXD0PIWtmXV5CeMcFUKa6BaGe1gqUS5D8xwipzhxh0TRrcEwFuVFCBnaKYYFffe8KfD1Md0EKyje4/Ew3fDIDA4Dm1mBmTwdpGSn1Cyd058d7xAp3B7K2lBRf0U0W/BE6hRRuPd2WQOUafHXwt4o6a87Z2Cb0R6BqXVIN7z2Zp8zFec3LUQ30jNNIwb7Q+kctElZ1tKEf1bmT7WCWpmgCJSMB0jToJ17kthGD600RE+7d8Z9p6VfrFfgDjWgUiGRmiZIqZ8zLmcQRzDlQnnFlWAT74Ug1zp/GiYrnYSYAnipdc0fYnxDi+9pinwfXtNF73XSqnBi+5u5RW17R/zsYuLDjX/hIseeKXY4aLLzqmQiz4+xw4XkwLccBezCNvhGnPml+Ga8/qX4ZrvOVxjh8USBRc6jdafIxCj4W8SbfJF25JOtL4VGOmNwKZhbI3GekW5IzrfwBcdtjQcFIPCOhhvQx0TGCaYdj5xHU3aHDSyaAaBcjXsMBucYTMw+r+dh7ZdwZd5aFMw/OfmoZNxjUSBajlmE04XiIFtEUB0zvkeEcDx5kqzj6rVhEpWD+sEEuTPSPOtWBpIAJ0uYFSJyXB17Fqh0JKujbdCM1q61nlpb7r36q36qIffB3xVFClhWg4zHQKBFp+l4ly6JACGkyQIAM0gP2HI9unXhwBvVGofHraU+ZYGcoeFj2hIqIRAVjaPtSLGJR2IY8HY0Ay5UrhXj/7ZIbBJWQV7GoI+mJbEN4H0zZ43vU0DYfM8UgVWtW4eYNoRjc0TTxEALW0ekdaKzrd5pqovBdcws3kIa2fNNk9ta8PYunnMW48m+iEQKbSvDQ2nD5L5liAp6pNnZodmnm133vlpiMjCxjUaBjIpEOgDzIqILERaEFv3DoHT+4Y1GPxKF3wt3Gj1UItJWLSrKSED5sYy/TYCjUnwZHs3nQHnFS9iuD5g5yDQjK7r1/0fLfxb62HowHOmKuDd9/xxasTw5WkXrRqQ5OmbsWrmODx9qS3+EHH/tJlkvlbA06cjesUCrGfPNGpDct7Th+PV8Np+Ro1b65/1bRz79fKPp6/+eHf/4cPjN4ecf49fFSI/evyakfTj3w==);lineShape=1;" parent="1" vertex="1">
                    <mxGeometry x="-13.179097827156738" y="10.866154091996876" width="5.273295057604439" height="18.906372809234675" as="geometry"/>
                </mxCell>
                <mxCell id="16" value="" style="shape=stencil(7VzLchU3EP0ab1V6tqQ1Sf6DKkxwhWAKyOvv04pL46vTM0cmKxbemcs9dyT1+3Rr7tKbrx/efr6/i/7rty+Pv93/9fDu24e79NNdjA+fPtx/efimf92ln+/Sm/ePX+5//fL4x6d3T//+/HZ8c/z1++Of4xf+fsJJdzUOVPT/PH3Sm5P63ye/PAE+PnwCQFkBMn/iCpD7CshOEgfAEyJdUvXOhxXgnXgCCAhozZVGANElvwLExU4AyTV4gn4iBJBdXU+pBSfsCcXldUm1OyFyUEBNK6C6xp8AqlF10/wJIisgT9lfAmAPcWrXFaCsqjFEyY61uLRuWrWrEOXTFbd1SVLnuV1KOq+A4jpbUnRlPSXJzrNT0i3CkqKLRL3HFlddEk/VW5oLdQGURuUg4vqq3kVcYwDVpXUPJbueCSC7CEuK85nngDjN5QD4+cxzgHe9LYDcXCJ7KH1q/wEQ58mxFtUceEKipzQOEQCBykEBaVW+1KcfuQLE1YBSpadUynRbB0BtkDiBZ7kegOQSEVwxrjJxm1ZFkFUOsblG4kPRQ1x1Kcr85AqQVzlEdQts0wGdcVRt5U8AwcUwJXMFiKt6hz697SVglXRo1M0oAJxAKNREB2AVXDh84RXAr8ca4nTPl4BV+YLfCc5D6kA95fj+KobqZLMDcGM0wKkL6uuZqi1w88wRvs+SADWFBl6S6mnuLqzn0+YBnH9fNSCiACLRuhzR5amI2Qklk06GTPU6CW4hVBeIjJO6C1iSJphE69T9xDVniKp1bEken6DGHMixqla2iIBMIomKqQYEVPaE6rIBdKIZ6hG98WCeuG31iJDGjCcQSasqB3NKjW1afy8hgNUBKqZmnsDMTQHBnBKzh+FzV+XTn2AOQwElIiAS5QvWHjo1aRWT9fOZaKtKuqw+Lwjd9PChAMjTTV1ZnIdIEqkbSxlzN3UzTJc0acGakrslj/VbnYI8/77RVaFSU78KO84zmF5lhpA/J2r/mm/HdT2FGucoGTrsNxMRa5kUAwrAs6qnYwUdjrLmFNCsF860rtICO4ESCa1vW8fKbSQ8JDD05Ao8odM99GoCg/p5oqbBe+NVE814ep8O6zbzJJqqmwB/oaJmsafl6R1usmeqG6bs2aTbWhEDDaDWyY5Jy08MVp06GK3EwIUpgFYxEYkGBbBqUiu7tKpr8lSZUkM5DAARnGYZIRkAC4cFfcwGoOqfxACYugb0ApsnZJP38Oozn0iBUYcJ1xO5gR4JyM33WelpaEDV7E7265FM0u8Xsl9r/Y2GhcPn3tgy85He2E3d7BdUTsNaJ78fMdXW7wv5/WSq4MOJX+gDpsE8zMrc3c33A6NtMSKM32fZWjHOtFCBjYQUnpApzTvyDsMs0CPVIBUQkBlAfW1EwC53MQDm6jR5gTJeBb+h5qBKVQDLaeUIqzdyYPlRMczzKITJHkZhWxHAEnn178WoBiuoNOVEwXGmTZcEbY/nqu8c0FD5hrtmYTOi4DQIMaq6aI0HT0i0ZVDUn0AUFJqoloYuRlP7wklYyGxV4Sn51zGI5MjpxY5ZXtZkfgNYs5EsnMvrWLIN5pnRTgZQPKUwylEO3bDnlLW1AO6XBgCYJ+EpmAU0TlWbJYnnRLIRnHBGonR0M5JoPjIAsKRCa+1i+DapvGXQkYSVTkOW3YPWfpRTNfag+fom2Yb8f3ThvksOtdJ2rDWg0crcqAbQmGHyji/UpdGO3XgNAPCu3smSKg9ZZtNawDIaxsph0+W2ku6RsxIdmxKjRGa0hCkYFMAovdGkA34+U88nJv1RQGddvYRMaefaKqbI6DJZwas9QBRVAJ1nOHz1Aag8TrcTAHUCgvTWAPDADto6lsQbDSgHoaXJaD9lBNA9eMxmVHCMoysH83oDYJzV6LmtNq26lNkTDGel6k27evp7FQFMNVRwJSGAeo2Gie4wUZZK+7mAGwBrZozZgoSnxLyGGhAqX+aN92RGjgoN7ArAgSCee0tE1l2VL7M9BKyButCSppgqSw2IcVyjaAoIiEzSGSni8QSufN8HGNMLZs5qQ4ohIEya7BKw6lLjzYwBWI+1NZpKZ9O2asKLJgvIkwa+BMAkV6QmerIHT7tQ9pRqmyZ1CYB8SWYQe6Hgap76ewlYHVmN1LcOAKTSnQ4PZMHWm2bGG9VAgFADOllSpmydPaVBXGyUb5W0HAzbJesAM0oHk/1SQJ0c2wvVu3DfegJIdMjvBLDZtDGgzBNde6z5oBVeaECZs3DWgMbcwnc5gexp+qOCg95S4k0TXTFwy6lS5kRXnNZTSoXzfKYH+swtXjGJQNulQGcn09kkF1tS8mddFqJ8g283DDyrgWLBabRYebNbDLmZ6RNSNCR84q7SuwZ7iLQAz4KptAIoERJwaiceynKZL3UEsCEcde6Qe+umWWemBmxgD76V9QSTeUKlIUsdY+wGwJxAn1TmDYANi6ngsgGwzqkaJOpSpccau+kOVJqRDabeNHNph6Nh7j0MiBxr8OaUOo8Prz2+1x7fog8/WI/PcFZRaFSzbfQBYEHKNOo3TxijAOaMKKDhVY4B4AlPyAbAh4FxAlpomVSOIZJbvWAO3lAfUejgSi3GExW6h5bMlEieofcc0LBFMcZviaRbmfOIN3GTKbeWjmidnl9tMglP6DTbrhkJosCpwOqRkg2cRht3P2AcMFKPIRF7rWO4bMNDr/bALyqVjBYqPP03Q5mNcvuj/Gi4ATbUnE3fVI+I5iIRa9WQaMmjuTmE2efZhXNARQ8QeH8iZTPJ3Wlu/jo2PT3A69g0htAfcGzanwx/0tIzYUQMwgVn7siFTLtpo/Y1jpWWz/HEL7HWVbLEIW2bpo7Rp9DecjYTtZE67mwCrqeO2/a5+FCmGNsJvPeRZhw4+AiewyQstPl1IEmYwvDrRpKQgeHXmSThZb3NfSkxl1c3N7IkoQve3PkSM5+8uVU2Cn+QGb+3Jgk7XJubcXI0tW/cF2syiE0kI43OJ4DM79OaTUehnJBkU4bxESIpM0e7odoY9axpHpJ5nA2XisqdCm1jSDPsX+WvHmjYB0yd20+bKz5oW96wsjen1aWxalKzZ/AAmW+6mgtyudIqZiT0sIfO75cL5jAlUvWudU5UHIDMX27QMf6rY2bNz+axqNdykWVJLZjA0+kwgNZ6QPNIoBNyzeRhwm9mNDMxqibFdKlVDLZqIcymW8URU+mUtm1mmHjzNoQBWLV1876FsSTzRodC1HsMPUHjkM9CKgBvZvErqaO/a4bFGEf6PLh1VHuRzuC1jCGrZdp0U+WD2koXyZo9Y1oNesqdJm5qQJB8dn5BrhqCvkfKfVQzv7Z5S4uKCYjYzXtgqpkz37xpRp8AdUlvfNPNnFLnjqxifOicfK52iqPTBKuaXqYCWEGp9gXV280lsnOE6bptEdEM4GwWFZBv3G3bdA12B+uN+nHRqWuEVHejHP/rRUcbgP7x/F6l9w8fPz69lun2//E9TPrR0zuc0s//Ag==);lineShape=1;" parent="1" vertex="1">
                    <mxGeometry x="21.715311864962587" y="10.40140356503943" width="4.968160154863503" height="17.224714233268408" as="geometry"/>
                </mxCell>
                <mxCell id="17" value="lets traverse over Sell and focus on minimizing buy and maximizing difference" style="text;html=1;align=center;verticalAlign=middle;resizable=0;points=[];autosize=1;strokeColor=none;fillColor=none;" parent="1" vertex="1">
                    <mxGeometry x="-60" y="29.770000000000003" width="440" height="30" as="geometry"/>
                </mxCell>
                <mxCell id="18" value="Sell - Buy = difference" style="text;html=1;align=center;verticalAlign=middle;resizable=0;points=[];autosize=1;strokeColor=none;fillColor=none;" parent="1" vertex="1">
                    <mxGeometry x="-50" y="53.82" width="140" height="30" as="geometry"/>
                </mxCell>
                <mxCell id="19" value="" style="shape=stencil(lVvbchU3EPwav6p0vzwT8h9UYYIrBFNAbn+fVlxajnrO9uI3x1GzmlHPTM9Ifkhvvn189+XxIfpv378+//7499P77x8f0i8PMT59/vj49ek7fnpIbx/Smw/PXx9/+/r85+f3L//95d1cOX/64/mv+S/884ILLqUJiv7fl19EV+L/v/j1Zfmnp8/b8uy35cW1rJaXsS0fLiS1vNdtedC7iS7mfX1xqar1lf795obYT3Jp3370roXz9XlZd6zHF71aP2h9dn6cr4ezaT/FBWFvdbXt66vzYn1zufD6LNZ3lzyv78I/w8W+r8cXFds8HzAAXREouEoe7a4oQHS5M2A0AUjr3zsAQ55xyK7FDZC8S8JJAWe0n0IKLghWgMR5p0U6AuM+ACbubk1pncz9uMGOyQZQvQhAcG13awJThdEItRh2QNVfyIuZB6A5L04aoVI9A7r6QjUAcEm4FdwkaiSkO8ElUI2yKQBDeWlwPGTvuiAfqEYJOIPwYkugGqWYjJQkqAGqEZdy0Tk1ubEfXG4ygEC1scdDRsSJrAHm+H1LBWlYBNBkzs7WUpffzgDk1jKcFwcH5vgdUJGpNKDsqbtmF5VbBxtdmz64sYhwAIbMfKBa3OndykoLZ4C+b6l7F1Q5DFwfepb0zkZf9CETGQBt59JIsgJNG3YvjfxKo0eQSWAavW+pV5c0oO6pskM3KaMjU6M1WdYBIPK1JEtWTqtA3XCpKRuyYWu9AgwTD0rqZVNFa9SA5hIBvExkubu+F0UkASWGZ9oKDIiC3sUvbh6A7poCBK4PAERxcEiMfk/GpS25cgboBqDyUknG6CpjupiTBiCoLdXFzQNQJJemiRagvNRZJE6AMnosqt0CRIiCaqSkAehK2QdmKwAqe4P9JBKnW8U51LSodgNQqhIBOUwVzeoL1RhdpVhHRauFAVV5aRh6VxlAzbOqnF8QRrewNOStDQqAVGm8lITWaBC6mQGqHUBVZi9parS6eqpbtqo2sbGEA0AdXMM5RAYkEQ9TKJgQTeLguqmiAERhdEc8GKMlIN1xaxTnAO1CynjaIKgx677ZUlaAtvLc7TkoAOqNOQc1YBl+Ke1bG1SHH3ikgXzehZegv0JkQBTkg/6KlDWS9NIo5gtaCQDQiXxBSulRucWHNvCCraNxyYK+KYJ8o5kv+KVk7wO6GSLolgaAuHMJnd0FgGoc2tmqvIQquhuNllx6yQDCWCXmFLAbPScd2kskdAFQQwQAmpkgqnZgjGXiAahSrANAiQwAJR0AKJ63JN06mEsAFOWlsSL4xktJA0gJ4OAuvDTMoFWG6DCT03AFoIHUHB6rkx5MDQDUuAgAnqQfpf6UGu1VgM51em5JZb5upqFRtgPDCN3pVv0Fjmm/3HAK2LcEaqgqOjoP1Sb5FJf6mvXc0ltvaVCaqYuOZwcXGgNUwwEA9XEzCegvkNaYaUazlaYOM5FdBFBlgMqtwXvOZDhqNfN6PWIMbv2illjTbOLruMpMPIxPV+mYR7Rdq43ONuSo2dSXEr6ZhyoRBy1QSM8ctx5n8oQ1WdIJv/IwHqpPDeNHYRtmU6NFHDfIFwRPRrl2zaXI5Cv6JmhK3cqAIRJNN8P4i3HOHbk+ZOt3pyEYq4v/2ZYDZUz1WbapGbLfvdM2DdmC32nMxrqVPG394msAs7l81ZZaN9S4AFQeApchNdlswTsD1MXObPJpvOnXhPRsjEAhCoAi3xxUmC+oFnyOQjoD1D3NHLYYgJIndpxTw5JEPzkwAkAZbUdSVesZO/QCQEWcHatVnYzt4A6/UeLBjgarHvfb4SMAqgua402yIcrcilztgwGIAJrzJDOMVw8XSmbVV3U3iooWyEtJ5tY5AwgMkF4KxktZFpTiWYjWIgfZebAQrXouDUCgk66yikJZUBc0Y1ABqomHLufSufD9wMwj6gqv8M1oi/qCLfMlYdODu5z4ngYFQHopseZD1VNTAQDoNguVOyobzEMkqA+lvnPkBxiQXFFfdFLm+9Hb3Qd407P/0O9nCLr0m4Mz5SbPMTouHiMMvvnvfVWxM0Clg8jySi6ZgSjkh9I/816e6KovmwCgef+8ARB5JpkYRQSpGW2yF5fHfP4+oHLXhDyT1ZaKuXz18kYBAHutWNRzh2y0dFlXBvcBad2R3/Q0KkZTNIDggjpp8zJyplv1KMTzWADpVsVoNIOHrC8IAAj01ibLTBabsSEt/X4fUHmek3XdRYPOgCBrVswsZy4m2TExlxC06pFhDCwrEYPqIj+aRAbAxfs5eiSV9BOmOb2hB3dVT1sQcZ4BRb8yLJ0BKs0EE0AIWiUrgylBAKhnWMGbWUuRN85mkI2sUIUJx2u8m/WqfWjclCGJyIbGvGFM+iGCYUXUNXq9gzjW62umxCI66vFB5GsseEC/vqbhwXxjqTjHdWc+9xaBaZ5SIY5U92bu4kFylbw8XwwGLT29eSEkC4KdZq4YPVtO3l+DkJ/bTJDB5bkSBNmAeR7CeJnVPb979xd7p0A8jDlZTj2F1pmeOwovXxIH9ruXr+kCP9n3Us4FfgMZZIgHLna6dX/1H2NcLMcPP/7u48PTp08vfzZy+//570Twq5e/MUlv/wM=);lineShape=1;" parent="1" vertex="1">
                    <mxGeometry x="-39.14340939912972" y="73.13559329048495" width="22.97827741955678" height="5.659052164250641" as="geometry"/>
                </mxCell>
                <mxCell id="20" value="" style="shape=stencil(7VrJblw3EPwaXQnuy9lx/sOA5UiIIxmynOXvU50BR4/FmZoYyCEBcpPH7Ef2Vl3d5F169/Xhw5f7u+i/vr48/3z/2+PH14e79MNdjI9PD/cvj6/46y69v0vvPj2/3P/08vzt6ePp318+2Er765fnX+0Lv5/kgsvRhKL/4/RDciX/9cOPp+WfH5+W5WUsy7vrVS0fYVkeqovj+vo4/3eux3GS+H50ff1+Cs6L45+/dl7fXI/X12fn/bI+JxeKWt/aur65KL5fXKfvD5fE+upqXtYX74KwT3N18PqSrq8fzodtfRD+9a4GVmCo+Iku91Wgu6giKLuaVgEYrQuB6gb5IDkvbBrGlgLQQQhYVJNAlVmAsMir21J2QbghbjogrpsXAoPNil/UkdKWmchkpbSdeLCAQgrYJEUWUDqkviU/tBJWyoj9NXsSolUonWFE8kOUoWHZvpo1JVfVDvA0HanMT1wWKFtoIMebEKjbDt0lBUlAoLLmg3dJOA4CY/VDRtIqpYeLBAJNhjdAJa45XeIEqssCwQXCveGaUBoCfU2g2qTSOEBZd2jFeeGHAlBZS0mPE6muCaQ1ljrCWymd+EgD5UgpDYHV06O4JNDbBNZYGlWWBwjk1dOjyXyAQFz9MPqsGNcEKKfHkOENxxGQQUCVdAi0dYfg/SzzV2NjO5MqQRBIm4DKIAiExGZqKvoA350d0W8kBAnUmxlERyoS702AHOEn8lwVWAtED5I7mMAa3w06qHDF91YdWtBKww8EG1ErvRHQkm/BBpENgGFWsZQZKwGuXcFGmYzwQJiG2qFOinoWyBorG+OMMSwlAFpJpC9KGl09hwZKdxFmhZuYePtZxS4L5GnEg0ARsIH6QSUIAl6YtW6ULGlq3LaaZQIivFtmwmSMSICrpUvclFY7DEZj+CGKHZDBafO0wtae5gEOAl0cqReuigg+RZh6Y8KE8Fae7rvSKKNiB+BcaSwwRHiPDfnA6hRLHJFDwwRUH5cmMB67JuEHUAvumtB4KR3K7C8OsSR3qLOOH5huVGatjN7oB1RRRAkkLh1ByYSnITCICpzp+GWBzjpU2d5jfSYjyYJl5IhspNv1zlU9zg7n8voxYfdtfVZO3lpjGFTF6Zhs8O38WdlncEVHaurvU5RWyYgPzO7MACRY2AZEoeV0whSgAZe/tQENTIKmJEZ/V5OGqNEIxXawgOozLIgSC6jKZlHqWYegd8jEJSdpv5pmayL3WVb+5nrNbe08RMJcVNDVZ1S+hbWiYGbR1UBR14PBveQNjyEmCBknI7u2fjt/0GnZiFjIKeM4E5s3e8oh8qW0vHEgyvt+C+e+dz3hFgqBBN7BJNuQUYd0XUMuecmkrDatPk5NB1HbpjBZdv9WkLfZrRTYOgtrsNSR0kzDw5wnKbOC52QWkJEH8NyO1FQknefZBwEvdgAb9DSr8pK29MZgBLMqUgFGmynb9IwEnJln6E1SL2PlWw/pVaOwARL4ZhQIbJ3FxpkVU7DepbOAuulp2wDDBISn0X+V7Ugqp63DGyyg+i/0kEQWYCUFM+hSmTM3ORJHH0zAitAYarww2Kw2XlACjY9kGaenBXWF1pIkCJTCWI89FQjYBIWqeZCcCgegtrb2m3PP1dOt3ZraUAHtVRLV/8zsVh/p3zi7Zbr9/+z2n5ndktJZmzVwo9r19SEEmNJHrcM2AmxFjgDtJnxNaqCAFywaZZnGNlUPGYG9POwtUuncuEAU3ShZ/aAiVyWdyef+9zjcUreBhSfcOUrYwPfoCjR7ec9ls2B6k9G1DmGjxlWmqA1eaYcixxh2s7zdvyuykTZqfOPeF9+Lm4Ayq92/NxZQZRQtM9Us7ClfKbQ5Cz6aVcA3mjxq69OQ9wBoeWgHxJLqo8NgT9v1t3r80bbg6xIqQ77UQOj3KPxCpswqdqV33TqOJvNhu/soQ9Kfxsha9VB/ew9Q9b1E4XlSGbIR3d6umL4i7hKXaBhUjdAi80nrQpUDtlF4lPYJ/AwFeaNS2W+zG936eJ5thT49cmU9NdGIKDUj3cCuSPduk5Usr+Y8d7f6rdT24iZK3uwZFYO8EfY8XfeSb3qmdl4WV8+Bppmj59G0l3OCwG7ycmQZOAq8BPPAbV2Q1D3MCfFhPigfdX7nG9Aby/HH23PTT4+fP59eqx7/n5+n4qfT09b0/k8=);lineShape=1;" parent="1" vertex="1">
                    <mxGeometry x="-7.601530043909406" y="74.24895390257593" width="21.24582096988813" height="3.533084562437956" as="geometry"/>
                </mxCell>
                <mxCell id="21" value="" style="shape=stencil(lVfLctswDPwaXTHgCyTPafofmYlTe+raGcdtk78vVJeOCMqb5ibLWAEgFgtwCncv24fnzeT55Xw6ft/83j2et1P4Mnm/O2w3p91Zn6ZwP4W7p+Np8+10/Hl4vPx+fpgt56cfx1/zF14vOCcUeUZ5fvv3hlL9++LrxX6/OyztM83/LewT5QjsC5XeXl+k2/bq3pt4PEkBgEjsekCm6AEgU64dwAfy4TYg+JbhFVCpCgBUcn1IIbdTXgVEoZQ7QEwUQEgpUjJV0BzcbYBoDn1IwlRAnTOT65OWTDUDgFDpC5cjBVDpoiEZQG2VWQeUluKVSuoBUKN6Kn0O+gkH6lC1DqUDVEeMuoGZuE+iJvIgpuxI+iSqkgkckxSKYgECCiGJqrcAD7KWSN54KCQIEEhSD8jN5y0PTizAA9XQHHLoAUKCPBQrGwpwwIPWIZhTSo0t64BoVUABGahAVq6NHhC/XSPnIgd0SiU0+i8AKCTtF9NyFQuTAqqpQ4ENoQAeuARD8gM1KpQ+FYmYLADWQYlQLaAi6Rv0ftHm6+xbjQm4EGkzbZk1kA0ZK6dzFAl+GDpI+Yh0JlDpZ9DMDXCu2qMjXWFImcLIb6SV3ObyooOQzuTQdpf/7dFMPPYo8vBZQGGK2QJQyym/bR3cRzmYoaVTLoNKq5L53kNJbYe6SW8zeJkCGkHBLpXqswIPSexUVEFPIIdY7dYnjiLouMjte4uNCbWobn1m24hYvnUR9b1s6NZXgZLpnmqkLzDsOOds4fy1y9frYJVPXcIUrMi4APclbovIlapwOLANB7fOsFo5uPcMX3dQXLhdQ5o5Q4Y6Owi5dd06e+xk1oZB/LcXBm4v1jvYkp9h/5Y27hbmoKqO7QLJeAkeaMNtoVy3j7azuN1m1u1TE5t3e7Sp6ZXWLF4O7r+fvgJ/aK8P7/ftp91+f7muL/+393N9dbnbh/s/);lineShape=1;" parent="1" vertex="1">
                    <mxGeometry x="1.8991271490431245" y="79.0626515210057" width="1.29195030944739" height="6.454385641372091" as="geometry"/>
                </mxCell>
                <mxCell id="22" value="" style="shape=stencil(lVfbcttACP0avTK77I19TtP/yEyc2lPXzjju7e+LqsgRKDqZvMkyRyxwDrBDunvZPzzvBg4v18v5++734fG6H9KXgflw2u8uh6s+Del+SHdP58vu2+X88/Q4/X5+GC3Hpx/nX+MX/ky4GCjJiOLw9/UNxfL/xdfJ/ng4Lez1716NfSdB9p1ytt8vVNo2IFUSNgB1iTzkTNFGwEKNtwElUikGkArVCgBC3XrIiRgcqRYPGH3KNqAxRZvV0il0AGjUggHUShy3AVLnnMyAVimDGESILUCYGgD0QDVaQJwP+T4g+aAVUEDQXcsU/JFQDL1RtXUQJQvy0D2XNG8VpFUB3dJblPCA3gqQbvWjMQDyKSAkCyjEgEsatFPcmIYE05ps4dQnoyMxidN0CBRQqbXLBO+igSCkUbca7QILoXUKLuoKo1YmtGYBec70FoAdIEKNKsDTVSiCxiTFa1TfZARoVJzktDGhI92yvpDcK4G3Sp1Woi7gSJpEcQCmgATRfOE0BuhB5ja0yFJDMayDFsqAfAs2L0r9gaqzA+R5rm4FsaZrR1HXOYsLQQjqTJ8FtNVYHBkPyFQVYDtTC9RBFyjav23QNVEGR8rd81s/IaAOmecBcpvUAkeKTn7XmLJWGgB0tyg2hqSNBAHiap+RuS+8z77iBy8z1OhN8rdunCGVVPHOPsF9SYtqiRQZDtFVr9cdE3WxldgE6j9QdJsPXK3CihHUQJeP80JxKy/sXkzV1gqvPNnPct2ZQCaL36gCnB9tXkrfzNFQ1nYgzjyBZeqzN4WP7fXh7VrydDgep1vN8n9/jdFX0xUo3f8D);lineShape=1;" parent="1" vertex="1">
                    <mxGeometry x="0.9074607815612126" y="83.79080996853514" width="2.1101685781430772" height="1.795178379369833" as="geometry"/>
                </mxCell>
                <mxCell id="23" value="" style="shape=stencil(lVdbctswDDyNfjEEwBe+0/QemYlTe+raGcd93b5QVbomJCKTP5nCGq/Fgpr44W3/9LqbKLxdL+evu5+H5+t+4k8T0eG0310OV32a+HHih5fzZfflcv5+el5+vz7NlvPTt/OP+R9+LTgRqHlGUfi9nCQg/nvwebE/Hk739gly6uwxQoxjQK0QuQOoh+h4qAyxj4gZUhgDSoFQO0AkSDgGZIFU+pwRquMhI2TpAHoSZAxIDAU7QAkQ8hgQM3DvoVRAJwfWvvV9qLFltQkgtjlIaUFuAwII9YAK4lQJC3DoAQLFAzBQ7wGDlslBCODag9cH4GLt/3FlO2eIZGskDrmDJZJkl3m37G72sRV5YF96ZgsDJy/+auJHEMc+gfQ0lQDVqY9Wm609OfXRDtdiAR6tlUPriKLTYcJVy9AvUYRgciDIDudmuTI5xEbDESCZSUv+pMUVTYtbVrp19W40k5M06mtDJIHoNFpFPa8mTRwBQ21TWgE8EYYUrT07DlQrxKbs2atAJ1vT4I+miSe1PTSwtz3jtkkHoxkMsQnYlaKP2WuLzRas6Gqp0hTNjtITZzEzQelTzqU1ZXupBXtXSLXN0jagAvWrP0o72davZKdffXrXF93bpW8zY2vkNqDYkJSJ3qgVsrOJeuKEVDJI3zh21UKvO2YpqH45xChawn6UtQZOAkob7DMOLcDRfc1MskqBE3/NQGjsvZ1cxS7Nd+4Imp6NH72dpupLxj47O1lWyoVADoNUp4xyEaD3/2L3Dbt3zbs7020IAJ0Gf/jK/669Pvz/vng5HI/L58n9e/s9okfLtww//gE=);lineShape=1;" parent="1" vertex="1">
                    <mxGeometry x="3.1695620747179873" y="83.40919376559015" width="1.1090680557985064" height="2.8763754009355735" as="geometry"/>
                </mxCell>
                <mxCell id="24" value="" style="shape=stencil(lVtJchw3EHwNrwjsQJ1l+R+KEGUxLIsKivLyexdMo9nI6kmIt+GwshtLLVnL3KV33z9/+HZ/F/3356fH3+//evj4/Pku/XIX48PXz/dPD8/66S69v0vvPj0+3f/29Pjj68eXv799GJLj0x+Pf44n/P2C8y6FAYr+n5cvYnKl/vfNry/yXx6+LvI9rfLZ1X5bPrjQVvniSmPyxa/y1dXA5HtZ5ft846V8dKGv8uKaZ/IlL/IpuFiYvKzrScc3l/LJ5fX8k55nZPJSV/nqEnm+Pm29r9ScpNvyxWWQF5eIvL5dFvnsXSb601yJq3xwmZx/dx3ko/NMf7yLgoD/r/AaoBpkAJ3sOKSpkCeAsCWZM83JefaG5lIzAHKoQa4AxCrVbHJ9E0C9ghiAEEBxrbwJoHqZERCIZiTvQngTIE7L/VlAdsmcUiCnpLZobzozQHcZ1DtT1cjGXyugEeUb5rI6vFw4ILkGm27OEwPS5+GSOnXZuaJqFE9jjj7Pr0sqcT7iGiAurvdQivMEoAuIqwGVRt1S0SiwbrrI1N9rQJyHOAE10k2PLa4XV/WgSWQoCW26dhfZHjIea9NozZaUXVmX1Li2jlNfN92q6+wN6ioBIK4SbVVAX/lCjzT+lzq90AHQEMkurs74dwCqE3asFUNcF+eJPSigrUuS6Co7pYokQIoTphpXb4j8lCTgHjJ7Q0M30wvlPQqI6x704hI7pYbq3To/pTY15wAUrq0NmYDaA6MORanm6siGxbFNd1RvtenI9tDRVdaNashkRwdAIwbTVsGQVTiBVgBkAKoszFXqAuKqGupHmGooADxfOWLSNSBMx3iOD0RbFSCwh0CD4jh1cPd+2uA1ICEjGyGG8eiMAUWDGIuiqjmgfApg6l3rdO6nOF3YPTTDl1Q1CIVT7Uf60/gpCZqoAjq5BzVIHwyAbLpFQ7DazCiuAcn1/iZAMdx7A6gm4dgALEncbFowCd0Aepgs9QRgbkZ9tRiSyOKDBlnMExtNafrBUg9ApYWD3iaXPxFdxsh6d8kwY5ZaagjEHIjTH1FHBvagfoksSQLGac2OEwMYkqjpOtMlSbPacQA65XySTQGkzqzoGlBmvDlVNDJxZFIuSiYUYAiWpoKJXJwCZD3WyJmxNFQNTWeFeD4FVHhDohFITLY7UnL2Br2mFTCSfvaGjjYdNOySXFQBoEtB9Zfdg5iUhuueoRphhrCb8uuh8jRR5SE98Vy1ZVYuX+U90wrBA/K0oqHyvYE885EiqBOcYwx5uDBXyXkGf+zvULrtgsC70PhvN3AE05sHBFGEG76YmDAd7M0LRvnOn19QnqWGVkEz5XjWANLu+RA040zLbsqD23Jhs56VTYX5gJvyqNA0nMnkl6/yLOsc94UGQOOrzNf/tHxH+bjR54j73Rhkg/Nk+nxpkBuPhYGMUhwxRDDRasql/MaDQoo9Q/PPKpynfH+EmHXDI4gxQMfCRWg81PcZp89xlRmZJk3QMQuTF94CQKVjuEW2h4bkWgMrDZTKPkCNOm3CKAC6csqgWNdJGVSFthOvwCoA6hDKAju7hzKLCCee2dkbbGer0yRnUF/w7p5rd0R3ofSdsvFgAJsA6M2SyiyW3EpBYNMjK2KAjsc6MjuWCqpqrPYwqgSsQVdMziKTqt5KBXFJwpdkk02hbNyms5vii02YFcBqWjYlHwDiNWzSvwOYssIOYAoXhdNNWxoZAHJxtvgyAKxqZsLDaPSQJVVTH1UAo7SjRGXewCrhowgGp8Qz7FFmMwBGwkYhD3Qp8kJeMhXYRGnYKEaCLmUashTgTTuMqUZVA4I9VBrjqkfmXxqlhgoA6lz6tJBbACjvjG94nRr6mLqruqmEQzqbeM9DMCVXZWHqPbYIxXlelysdy86NOwEFgNdoaQcAJqCeihUu9F6BgnZO6kdXBVpJiTerGnINjUmsiV7MTIlwJ/Da2z0A2yWBExikjl1cxcrfievfQoDJSecd6IrDCUqhmAUpAJrig+Dw3irE3S60QFpMzbbX3RuASw9ywDpuZRYgDkCgNSf1jDA/pLGe3oMpVKtBUD9j4q6aHJuYGt591b7GR6ZG/AA/wznciFDrpjUo0eGEYJxrpEVejbIYFYU29gcnhIjSaG81Gz9TeKtUiTBGRT5wNKg2cAc+/pATpoqDuBJdGrM3puPGVCPb4bVG2Umy9J4H6jGhFBHAJmMuZqAKzfwupqwKLTpczHFxwMWk2AZgZ9E2ADvtVuiU68U8HQdcTOxtAHYmcAOwU4d802Ou0TTQmJsZk5OmgVYYwExZDRtkiRwO9+RM8+lm2piZDj/UaVynfJ0yDSMfadMmY3jLgab3CVPpxIfK0ixtnUogic1YootUd8BYesT7SoWOAppR2pToegK6u8Tp7dGPOtW5WOPPI1tQDWHD0n6Wy0/ybN7T49BT5KNhHhtmKs8mMDwm3KMQSNiOLScXWuG6kmcNHpVfg8dowBB98DO0nORZz9JjtXeMu/P7zSjPOpZWH9Lm/CGUDXl6v2/9McVOXj+8/nLj08OXLy8//Dj/H3/poV+9/Eokvf8X);lineShape=1;" parent="1" vertex="1">
                    <mxGeometry x="26.10612831605522" y="73.64484177999512" width="52.42527525351009" height="6.7162723895966305" as="geometry"/>
                </mxCell>
                <mxCell id="25" value="" style="shape=stencil(lVfLctswDPwaXzEEn+A5Tf8jM3FqT1074zh9/H2hOmwMSNpMbrKMJYnFLght0t3L7uF5u4nh5XI+fd/+2j9edpv0ZRPj/rjbnvcXfdqk+026ezqdt9/Op9fj4/X388MUOT39OP2cVvh9xXGjEiZUDH/e3lDM/158vcYf9seb+BQo2XghaSC+j+X+r5/HCouA3Kh3A4iBMq8DSqXmAI1iWgfUQiwGkDLlug5okcQCMpMUAOjUmgUoDSBpKZTYADSrBMoguoOltSaKoA49zgCdageATN0m3Qo8Uq/Ui1VGgEl3oegAuA5dSbQsiYw3iwAOgYJVa2cqEWhDKCUL0E0RoFKwvGpaBalPeY0W0EZpVuXqclCmQdZ6pFI9gNGROrHLoVAG2lBDlOYBATmo+i6j8kJtQ6VT2AM6sJxKx5laj4T6jLTByQ1AQA5quVA8rQWwNPeoVhp1MgWwk4bATqY5xOYBHdGqvdcBOhVEa6A280MHtGqlHeDGhGtiauK3ECxX1ywVgHhVQ1TxNL3tuWq54gEB7ZAHKTelZrxDd9rQho8AQjyzHOrfjSlVD0BH0vbODpBhn9FbjvsMgCyXKMTZkZDlqr8hpqSRXD8LaM2PM9MFgQFik57uINT6hLIbmPLonmuAallSE2ZkIPFXkJay4G7cLEvtA4smPwDptNEAQC2abQ46z6B+r+uJzUEnJgG34rSe3SFHSGvWzmjlnQqcmHLwo4COukitib1FdZbOQEsx+juLCwTwrA6shQOeVuHY+Ajv9dm0FMeVtxZuZcRUgSgCVXbhiE5dzLIZxlC9zL5v2Zo70E/2agijmS07wHeuMDy3PKn6wmJ/MY/J+iYeUZN8bw9wTlBZuVknjHlsOb6OEfY9Hpnxsx+RH8frw/sX69P+cLh+8N7+779w9dX16zjd/wU=);lineShape=1;" parent="1" vertex="1">
                    <mxGeometry x="53.46838651475241" y="83.35935908975327" width="1.0960348744315682" height="5.315054421272807" as="geometry"/>
                </mxCell>
                <mxCell id="26" value="" style="shape=stencil(7VnLUlsxDP2abDW25eeatv/BDKFkSgkT6OvvKzfjC5Ljw7Dqhl0eOteyfHQk+e746unu+nG/C+7p+XT8tv91uHm+2/GnXQiHh7v96fAsn3b8ecdXt8fT/uvp+OPh5vz98bpb9k/fjz/7E36fcb5SDh0V3J/zLzFQqv9++XIG3B8eXgMShagAiSllAJC/mwJkRzEAQCCvXcqFvAcAR8UrQGGqbQ1oFLVH1VFya/s62eexp4v2hYoOUfOUy9o+U3PaPo8dLeyz3m8rlIE/mbzxp1JKa/tEyTy/jUO/aB+pFGtfeG3P1LK1b8B/Hsc/7L1z5MCBBQptcghxlFKcNgwcctOB1XEkC/uoGS0HhvxxdsNCiAr2u0Vjs0/jSFb2Jj5xUHa1X7YJgBIsEGt/SqMK/InE+vnFkwcEzSN6m0J4SNBGScc/eXJYgrhqVfQjZEtV1CnAHqaA6K7TAGF5AC7JGWQNkDVR0sjznA6S6CRcIRGbKFEF9iys0CwVmoMk4DI482KPkjiKP0kfAnmQNLERa38yDJDULSProkKg8qUyOLwFlMeKl1kaLCn8G7o+8borAWBRTxO9ZTn1CGJa0qDABsgY0MiZFRp0qSarpcxDPS7nph/P2wCSGyD5RWtZrxAZqmMXcx3WGKmhFUSttEsxE6P0d5MCxwLJ1wuS2USDbZQAjGYnN8roKkyGGylA0WtTGyKAjFQ1UZ4AqKy1SecFwAjAU7PpKYIcbcFW2oRFT9jXjNJXmKMdYMgk3SliX5hkTFIEFEPZtOl/ha4BAUQXNTUkIRgfXDQuBdwwizBNgIZWKFNYeTSVK7a2ZjedkGy00fK+CivcQ5tWKCMMSxXQ8i0pCoWp2ZMW8iVEPhks9ApCb0i+MpXoMIrY6uBctICCEihaXRIAmhWErWnaA2ob3g3ovaaRStkV2EP1trBL91bACr0qarZyhlGSuptMzWIoxjLBsnZJuifE1sz24GSqRGKchEsGIKqBhrw4daAO5rSwv+g9eDzFdJ0zgDh05DJgI8IG8LAlk2NKugJV2JFJU96isUdzRp/k9TlLy4d6XGmZvWaSNPpI7GVUMhIgj0Ar+GZdEuohzZBDsuWER093GRApGxkTsQfp46ei29mLhh+ZZXSUyjasLOY307VKiqP83BrIzV7mc5Se/+MCBiXzxwXMxwWMjo9pnJuDvXywo3CNUNt5dNVbQlas1LYkS0VEBMp2ZMtpqNLiBrUZCaqj81kIhO1aPGyZfZhaBIclK9iRkBu8jeh3A9NYC6+92e65X5iAM+g6XSwADUc+2RZBAIw2na3u9hVQ6chWWASAOi8pTub1g0QJKZ2UU58tAF0v+DrdR7whRdVewsStXC0B02UhatXe/87lbYB8eHnFc3u4vz+/IXr9v30lJD+dXyfx578=);lineShape=1;" parent="1" vertex="1">
                    <mxGeometry x="52.74540594818632" y="82.02675233378162" width="4.258531101632578" height="3.4659981751430897" as="geometry"/>
                </mxCell>
                <mxCell id="27" value="" style="shape=stencil(lVjbchoxDP0aXjWyfNVz2v5HZkIapmnIkPT299WWMV3LcCBvy6KzlqWj6ybevT3dv243wm/vh/237a/dw/vTJn7aiOxenraH3bs9beLnTbx73B+2Xw/7Hy8Px9+v94vk8vR9/3P5wu8jLlOQBST85/gikLR/L74cxZ93L4M4x0G8UAlIPIzigSkl+Pk8yidqQJ1E2gZ5YQpYftTH9Begv52ug3wUUoHyZZBPpk+G8mmUr1QqlB/1z2YxrP/o3SLEBcqHUb5RgffV0V81UYb0CaN9qlIF982UR/u31Al4Vr5QrKN8hfpUkvH7avwE9mkUR76pUOPL8kZ3HRXSTBUQIhRKo8e0EOtlgIgPGTuBgUqRKefpDuCEmDslT4AAjZoCxeytKsBrRnoeadEaKUor4nltfi6Id0ZjHgGFMnB0SZ4ZLfdPnAeoD02jagPUrsbt4AER3KExlewBjAB2glMp9vx3FmBu8uETqQG2GtV0BoD8rhZweVIJARol9pcWBFCKE6ACLhmgOZVy/8SFmOYeYCuEIjNZknOOKDCCDMBTHgvYTKwekAH7LKu0CdCQmfIUQRVzI/kscCVGNZJMl46g+FjeSs2bFd5hypUGCCD1nQFYTCE/mEpTjKKGYbn0lDYSYJ/OiQmXRD1pfGtQlymTRVggFvIlr1JAl1bfRRoAmlV7CK/8gKri+RityEzas/WKGygdL4lmCmpFIdcmblTYDFuyjMEDUPOwtArRAxqoch8H8FRSKuRGC5SmoFbUkRWqUy8gICBqoJo8IAOVip3gqKGwPSnB1yAzA+K3NeXqAAGekK3wuj5UYB+aTmPRCRBh6otKaXSc5QU0+URL36NZFdcsUU9vxQViGfbcCQ0CgtXAkUurML/UfjuERS0qi9M8aXdABUL6dLRyQwSODr3ZWTGpojzWWbDOAFCeXV+cYN/AvSKv5rEGmM0+mm3eQ10x9wJ+4zzJPuNdmVfZN3tX5mHuy40b5232LcmVeZ57b3rjvoB7artxH3E6/cZ9B/cB4cZ9ylQ1r+xr7PRRHq+DuDvntmXTpD3DAjuRgWG/OY1T3EfvC6EVghMXKF6KE2egu5BM4iCuxDcrWDz6sMXKJJ9F8FWTb8OxIacdFnbTtBLEJPjwPvOKuD38X50+7p6fj5vX9f9+1Wqvjmva+Pkv);lineShape=1;" parent="1" vertex="1">
                    <mxGeometry x="-38.16152487144632" y="80.93024257196294" width="1.273531231543387" height="2.5359875376501666" as="geometry"/>
                </mxCell>
                <mxCell id="28" value="" style="shape=stencil(lVfLchpBDPyavao075mz4/yHq4wDFQIuTF5/H21tjUEatiG3ZVHvSC21pJnC08f25X0zef44n47fN793r+ftFL5M3u8O281pd5anKTxP4enteNp8Ox1/Hl6X3+8vs+X89OP4a/7CnwXniP0M8vx3eRGZ3PLm62K/3x2u7CP5quxDo5LW7SvVYL9fy7q981T0AdFRrgBQqBmAJ5/XAXMI2QJyWwcERylqQCBmAGiUggV4RGodshAogKBTplQtIAGXcqTaLK0VsFSEk6QTXahEAGiUWQM8JVQZydLqMzXAUnPkNa2eYdAt2aClVkGiW6WmY2aY59ZsJXEnbc0+6e9HcoBSsTdacCJO7FDTlM7qAJQ6/ozwKgkF1MV8hI45JCooa43qUNsVR52dAiTuTWcNEHRdpEgBx2DklhJlBKhUnD2BUQyVomkZEhVoewLwQ8tgBwHOyC3CRiwALjrTCWe69uL8LCbRJ5ZP0CxJYjBJRg6BMqqk2uvmIrcYYJqdladDlDaK2t7DyTPLU8dbqGL7plPmUvdwFaD7lzB0T5xmOnvc8Vr3+Gos3NFaNnNEso4KW0g1WpNZiF1ygzjRHPl/QCbWWssOdyRHQSdOpiPqeTLazCyU6ehA0PPw1FKosRfL6ng2o43hCTna4mux96gHVwzhzQNaxyVGAKg0xjVJAAkIelzEBIB63rjqtUIMBDQukwKIgNZxXb302cf24bmrAcEN+/bVyL7t0ZAFqS1AKt8IoIAA+EYOPPx+MPaeHMiZlLEeUzV3D1fsWae44qkwLDwl9Lb/mH3OsH8N/iSZgqBXSLya/+SpQf4Nn7H0ZvNYvuabAvTH3r+4a+KxertzgbxvLw+X2+rbbr9fLrvX/9vbrbxabsbh+R8=);lineShape=1;" parent="1" vertex="1">
                    <mxGeometry x="-39.36403274454324" y="81.51416970650807" width="3.1424823225765635" height="0.10886628587968775" as="geometry"/>
                </mxCell>
                <mxCell id="29" value="" style="shape=stencil(lVnLbtwwDPyavRIS9T6n7X8EaNosmiZBmr7+vuMu5F3S6wly2zhDSyI5Q1I+pJsf97fPdwcNP15fnr7d/T5+fr0/pA8H1ePj/d3L8RW/DunjId18eXq5+/ry9PPx8+nv59sFufz6/vRrecOfk12U0RYjDX9PD4bk/P/BpxP84fh4Aa9S1MFH2YfHKJoNHk9SIgZZSrUGKqURgy5pWIM8n1w1UJXsDCo9A85ckzHQIJEYpCDN+lSzBOLUlKUVa9BpFFL3XkpJUt83yCrBngGv6JEYFIl2hYzIsBWa9G4MSpBCVsC/o02NguQKxACpas9QEUqSSyWJWrdWJAsJXEGYbGq09cmeQbFbakOSUoNqvdTfXMElX++UQDDI0TJUJTK3ZomO0og9YRwC14IlUAgSyBK5z9RZl2gSWDKtZ1wN0kyvPYNs07WP+eS6wZBgc6Onydo9g2H92vgZ4KZht1QHVbKiolY2apTKDNLUrZVBacrzdYMqwa4AmlfipdKlWY5CNli61g1HU5RI0rUWyTb7oJUs0nUTuDjmK64aNJXhSlCmkV7i6gyCdLJCjzP719SQStQblG/2zIUytDcZlj5pVtWr+IHtOoLKIPsHt4p1KV5Aggzy1urwgSj92LA5zGq0hx/+/fS8SIDu8JWdd0h3AaY5eiFvZ4PGF3DEVKrZwLuqoDwAw3dVidY1ONQFLEnleHdeaCORCSRE8vuphMOjbmRlFq09vFNGnYy4ji++qeWNAvCud4nSGb5u80E5fkOARggPfPd45YTM2eEDj2+MHs/202f4z3jWAI+1CTrjM1Fc4JvfP+vIF341539W9xa87euUEn7Zj8c3lp8QIM8X5YLYPR9ZZwC8qsM3Ht/34SFPNh8y9T96K6cnIBwrYHVOAucCmRlePR8HLahousO7hsa2drgXMyDr21v0/eVCYeKi2nwNwxjJOFmz75GTzgFpr9Vyozh6MxYFNHOONRmHZgbVn2EZkFh/WfzsgQmN9sh50/KubfZey+uUrvFUKptUQp/PakdZqX45Sbxh4JIV1Y+NdGCbu3JpVH6XQdoZZFqPMSn7kQ4FjQ2+0d8nYMpkLRcMXIuJppZlKwzcFQdIS2eV6DUJszid9oO/16mrzO5NdGrPUNP0294Vh0u+0mjfhenK6fDiaHKGDNmyK+AVjSRfGl6Xcpinum5QvVSmQjmdNrUhBdrMLldX1gDKp2QFFJvkumWl7SOk1xEIIyC7zIK4OwLFRq+aYto0eIgDHRFmQ3ExZLJs3YQBS7JLl+gvmlDhKjuyV4ClIpIgBE/PyEeWME93gWdKD/+4S9dIJSxspvxIdX47oUU6k27fH+ZF2w5eo8criRf8Y98/Zi3dc7+/hWcDQvRXp4PKSvTzPb/jf+cngTfh+HH++vDl+PBw+nhx+X//tQKPTl860sd/);lineShape=1;" parent="1" vertex="1">
                    <mxGeometry x="-35.62808078075932" y="80.76679860081796" width="2.054169758471222" height="2.250175439087867" as="geometry"/>
                </mxCell>
                <mxCell id="30" value="" style="shape=stencil(7VrLbl03DPyauxX0lrhO0/8IEKc26tqB477+vlRdKVfDc+fAywLZOTecowfJ0ZDSJX34dv/p690l+m+vL8+/3v358Pn1/pJ+usT48HR/9/Lwqn9d0sdL+vDl+eXul5fn358+v/3766dhOf767fmP8YW/3nCpu94GKvq///vFhf7vDz+/2T8+PF3bNxfiZh9dT8Q+uxLAvkViH50I2Isn9sEFnH8k848dv5+cZGJfXc6bfXZdiH1ytW72le5n9K7t9o2uNzTXy2YfvAuFALKTtAPi/OUYEJ3fdyjU6fNDgKCHg7hKtqi5CBGRaEgUl/xu312oJCRc27+fkvPMBa7sEa05UZkL8PtZY7wx+7Q7oKjPyXzUvu/2umNkf4Lru31NdP/jHH3ZixMSQdn5ff6t0BQoru7f72sHbsQD7GcvdD4a8H5PmS6uMQdEV/cViJIWiaBQ0AVSXGQ5013cWUKqk0B8EKZLF6BxXsku7YsWHZPskm5r6QjwLG00KjNOKZERNK16wEV7dhZU13ZmkUy5K4lx3Eq+41CN000rNPr8xDFgpe4CZMqOubqy82/XfWPZo2S175KmjxA/ZEG+aN5lwhdKJ3EnyJonpd0CgKdLp4eUAuAMKcFVPkLfAbm4wDjDY7Sq71lojEXvftBwLHxbOwiLk9AQPBfi0jK3ACBFRpaTgyQb7aU8wnhJAUCVKgciUS8DsK9Bz3IhVDkADQHtfWtQxcT94AMCIgeEjoDA/ZAMwJNoHZ4GQJkq8RagGYnEmE8BYtdAABreIZtd4gkUzQiFOE4ByXqaZ1w2wce2dbAGBN/yzDHAKCXVKiy8FQAjRC5VS0S1rfWDZyPoGbf7YRxizHFlatPFfHFO8hhQMUVH/JIUVa7O+wg6JpM/1eO21jBXdQyIM9QWoLlMFq3nDUj6Fmm01pWQC1DponUCdZ9SW0l7DBAUWKpCWU7rIVvhYF+l3DEgIpGpdKhkW1tyaY8lFbqREFnLZkrFZZKiuonBAFgp01axeQ0gi1ax4w2AFW89zhlfA9gIBZnvbISjNTAlIB5V5fADiSVJxg958vkxYHHEFYBJOBGzaCUe4jgRZG8FNBLeCihiRiAZpwAoE3UNngSfAoCMFcBIYAAEAeW9AFY0HUypUKErgvJnZBxhPjHS4STjhuOqAZyEholWlqJa5omppwvhJQU0k3GJA6rZVtZhUYCtstiRJasDc51AHNAMgBUcspT2VT4wZax+wK5Dop1PBUSTcazvI6bgOB+hGQDlJcFW0UhRHq1iAIzIgrcHRD4jJjEHhOeAbhKC9SkUYI/RwgH5fSn3bkA1xFQnL9w6gpCYKpWVesghoFE27t04rlFi+i5ergAs+oYUgCl1rn9kZuQVgHYSm+vRANgIxQRfp7ShkiyZXWKNvhZNjrZZRx0DAhYQ6mnWdlCla9mY1Za1mxHS7FzcUuuoHTw9qLUeAHJVzzCFVRNqaRXLdA0B2VhXxZisyBQvCxDpqVgaammt1JjjtAqDk31U/SSntbZs+wg50daJVq8g+hJv/5SAnUEtd+miTVdNC+qzJhlc5kRaH4/2D/QphF54/eh5TcCPntf/oucFJBD4ZeJofEMCec4aprU+roYYLxkSiJ3TTJjl82KNRIsgBUBrPQktFZXIgFtzoVe6CgBeGhcQLDQi0n3pZ73HYi5RWC9e/QAlSvNU/owU3XmpVSoSs+ovkD+BKjLdRCxGNUUZ8yW8m+onV8EeW1hy+lwk7X6QMqvNY0A+uBhlZJw8SjgRft3fzKWizIvMY0DG4Luqco4RHltSowbhrzrgkBslM+GZkPGZifAzKwQUG+PulVUcsy++7P0sHo8VmSnxKy1eM3axT/qzpnN/0jEOs069Sk92mHgkvcr7Y94QDJclpi4eBELt826fM73vD3jznTpVDKYYS5ESZDbvvhqVMNXYR3pl3JF/9eDMLAPMw6+RE8TB+t+oPAOPoIYPofp8C3Yr6wMcIZwlEk4ozw8c2xdkFd1R5uFuHmbNmLrFpHDX5WmbRAMGnqJ5GnEpYxnJWTRVPJ2WQLx11kAXxvP1mvt6Pxd0yx40tqdPRdQeKCXQ0ziZdp7mNLcHJRjomZEE4yfQztywx6ebJ/OH7mLk74dMRcEZYrwGqmDPrjHVPuNTT6bdh3+hWubxJsgPibYg3v3U9tRe//j+rvfLw+Pj27Pg6//Hd8D609sb4vTxHw==);lineShape=1;" parent="1" vertex="1">
                    <mxGeometry x="-32.61371784728021" y="81.15906684594063" width="4.29667904789273" height="3.229026493269093" as="geometry"/>
                </mxCell>
                <mxCell id="31" value="" style="shape=stencil(lVhdUxsxDPw1edXItmzZz5T+D2YIJVNKmEC//n11Db6cdblleAth5VjSar32Lt28Pt697HeRX99Ox+/734f7t8dd+rKL8fD8uD8d3uzTLt3u0s3D8bT/djr+fL4///1yNyGnTz+Ov6YV/pzjInGagiL/PX/BlMP/L76e4U+H5wU8kbYBbl/EbXghkQFeqaRtuP03D/AQqZZtfAiU4xhQSRgECLUxIGYKCgIqaR0TxluygrYxQAJFUNGoFMekpVEFRUqBZGxZrpRADilTGpMuhTLIIVWq45ZUKICyWoqNxz4zlQoChLILKL0M1wMKlTAENKYKmCeV4ki9JpRQDo3ymHQrpKBx2SZl7EOrFMCWciBufkswIPoqWdIZdDpLH95FWQPKQTs3F41DZS1MMtLbqIFGusiKfEoK+lCqz8F+872VVwN0NXFT3QC9Vf0AGR0b+IUaqDjVwznU7LmUuE/I9QCbOB11SUhBWVvoujsrX6MEBsio5qTYtDCggNL7OpMPytJE/rENJjJAAgyfxOET6Jrhszp8BCVtKxErUMNa6+W44N/HdQsvq/VRPVunzGL/eP3aHF4wvnk8ZNAVfEP9Wu3HtAMoxZRvcHjBeCkOj6Z46pc6PBKiiQ9+/YL2Uzt9F/vB6zs+KzyV1/OimD/z4bLoF5D2Ce/5WfB8RT9fgvMVP+9Ipg2vq3nB/OTVPGJ+ptX6mG/F1xPu3/jv9eoDPjdfzwL6G5iJvUCgM2P6AU+4gBP4HH52lfOJwZgRxTPajhhFI5D8yIe5aNcD2LtAs+9oyKp2jZ0P4gBVpSbvDcwMJyC72nzSkqEOmV9yc5ATtL7KlMYtmSFqyHJZH5yy4xxK7EyemTFfGa7bxubNtVmkDLiaiz/8zJgqSNqcbB3Lao4HyaMV0R035niQRzOT2Jy/0a6AW/bdJb0Y2a07yPqGgIymqC+T7Qm5Opk9wSJrdD01p+tckdUVTZBEUtfqQhWcO8JdVRbcQMJqXtpdi6YrBbqepj7CiysFOkrMuZZRyezG3EBZTVVcWe2yh8Q+hu6FFrd+VKVgSY90tawEPUQkX1bbpKLzsLu/hbYyUg1PDPtF9BIkqws5JZSwf3gReJZw9+rzbiCHbA6jgzOGj6szvNpwX+wCR86RvfHCxyb3Z4kLPAL2s38TYMh99uPLH1TGXQqwwq0kkTutN+CyWh1x3ks697N2A1796gmpwudePj+E24fLI+vD4enp/Ea7/L9/lLWvzg+66fYf);lineShape=1;" parent="1" vertex="1">
                    <mxGeometry x="-28.53702439592439" y="80.85208793854964" width="3.0202316698321514" height="3.6671871226956494" as="geometry"/>
                </mxCell>
                <mxCell id="32" value="" style="shape=stencil(lVrbct02DPwav2II3vmcpv+RmTi1p26ccdzb33dZD5VDQNokb+eiFUlgASwg3aV3Xx8+fLm/i+Hr68vz7/d/P358fbhLv9zF+Pj54f7l8RWf7tL7u/Tu0/PL/W8vz39+/vj2/cuHeeX89MfzX/MO/7zh4pARJiqGf99+ySq5///Lr2+Ap8fPN4AUZTQHKATQJA8LiOEaMP8uOyBITwRQJagFzK9XgKJS4wZIQzLZUmnS90OnLnFcA2qWXHdAlU4ALay/D0ChZ2hVRt4BSRKxUo+S0w5QScRxvYnuhwZZYr4GDJWwHzriFmRLI0swK2RqpVHdlqJUcobRJBlAWHS8AvSdfNolKwW0nUtaJTMrNQm74zRLaQRQpJsVIo2HaVYD0BUhV46rewANSZUwo0vZqQSrkft3eHUnRuX3D1L368siylUsqAmeFRzn1+sy+LfrAwn/WqUZYkskDqgqve8OkEZYWhDL9vrK0lEUVXt/liARBdnun2VgBJWzD/EXUrzxb5ZEggw1xKTTSu0Jeo2db10qqVFzu/v9EQCMoOoIrUUKWQEhm3YPIK8EcgQNKykcgLJIe85RCYbSSjmabZWFU5gPorR9PznTiuYojSJaSH06DH5cD58xH1uD1iKJnDdJ3nMcgjqRmC+WEkgajdwflWs/b1e6nyFlrxud5yzkcN0PgKzKHAzKtX2FEdYtzgFtlcYDoCuPnbvgkFkHIK16ew7IVqmh9GQeyG23KopbIQCQPu60hgTILBXBSgbQJJLQh5DLwQIaCX0kR6NyRl9cOQeURfwbAAvNPESLBTCzoh5kt6VIHFeKK/htxfc5oK9guTUrE8BqZREcx1TOVMzm0GWlqHNAs6of5Ousig8rgEFv5mlklG4OfRTGc0C2SWPwJIkcVMwZAqVGG6vKHFlj0CQAQN5XQJoZfAWjNieAWAliLardEst8AJRsAYytAJis0Y9sewUYbkusr5iAYP3AWp25pWYBjN7z0NECOl/BcykwUTtc5lPafQGQPICkykk+x9bB4gFZwwFYTANQnB9YMwVAdmZVVta7TZWgBtPmAFTH1u9saUQLYPUBZo2O3oHHdDWATv0ALgW/ApsVOLU6Q5SYdcaDizg2FQKguy01fobhPU2s1L2aCVQ6zK7TrcD0EgDJsfU7qfLnAM0NF1CBmAptZTXWNzUusRWiM2teNelqUGUjrtBmtbqJCpQABaAx2skHrVEYIDoZyqdzZdj+efCiCL1kGtwxVhG7UmSmHRi8AuVh2wENgTd8xeXKIYOEXFYXEGPR60oam54JgMS0dF4DxRu70hWCHazA1ewMsy1zAGYl9IlGbMxxGutpDqvfBgTZklY7rBp8WqLJSQF0OQwQ7Dhm5ntWgmSYGlfo+MMxCb0usxFSyn4A5ClWdNU2QHMAR5JSsKoYKYGN553L5qyB0M6Vw6J0HhncI4+0LHw1W9nvP4f/rLuSbMZtgcZZt+OwOW8jfNBo9bAOqiW1WUmimZZzuNhOMOFEZqJmG5lGn16kaHvio9G/GknaAR3Pv9EOGnjnlo8nG+v6QMdbKAihmOuVjYTdUwJeDVADzbyQ37+6+SLfP3SCiTHluqKuifQ3+1NKq80px4Dv/PpiBWem4zyoSzPxqEtlnI/z3Ai50TYBVcV2kKtvOL/e5WhVOoyYpdc9NmJdwo1+OBCVptGpH8wUvPMHTcMGAVjBOnmcuu5bgpsrSRMwq5F28FtgZoo2ryBb0kakWysh+TLP9WQPPR9nMMXc3NOmvGYsV3MnI7FRP+goLNv8PqeaTJ52a9Y0aMVHgTRPm6EmGftyta1O5ppivkVgXhOIfDTsxtsAsKp88uZCos3UybsRidJ7xnx1AOIHAIyn83cm7mO9FHADYJUcgOCsxLRI7M7TUSp7kNRtJw8Ae4PkFEDNerYlprBPDs3Jd2JWXfXlRx3HJe0JNZT22T/9Ys4PAPDh23tAnx6fnt5eI7r93743hJ/e3jlK7/8D);lineShape=1;" parent="1" vertex="1">
                    <mxGeometry x="-24.0824916764534" y="80.33613931291511" width="3.139172748717667" height="3.6384660874263055" as="geometry"/>
                </mxCell>
                <mxCell id="33" value="" style="shape=stencil(lVnLUhwxDPyavapsyZbtMyH/kapA2AoBCsjr76PJlnfH8kxvcVsGaWxLrVbLc5Cbt4cvL3cHDm/vr8/f734fv74/HOTTgfn49HD3eny3Xwe5PcjN/fPr3bfX559PX09/v3xZLJdfP55/LW/4c/KLxLo4cfjbH7T2/8Hnk/nj8WllnqjlwZyphX3zRjEM5olS3TePTNIG+wxfH5V03E6B9nY45fG0AW7I3ifjAaKQgviIUHIrFMoFODQqdYwoUwRbSkrsUmArpH2HzJTHLdkmswKHSjJiIgWKYAW198noUPomtx0KVZfnRAU4lEgSBwdlShE4iAeqNmrIIVN1UFKIpVJ6TLpDFYogrObQxijV2uG47VB9bTahAKCxOIxnaEqCwlopjHlolRJyUEquHkKggMKUOppXS2R0apn2pBDfhSmwD1NDiQjU3JYCVRRXO6JLdYFxNazF8QyGDQG0oRb20aE0CgCuVkFtLAgLdBDooGUsCFsTO9Sp5ARkWifayJkKoo1GMm4p1V4ie3lwW0rWrQC5GjTKmDjJvSPtsUAYz8CGVlQQZYO+FWyphqkFYfo25OTx0NaCGK2gPqyth23bfmrSpcN9u6dHyr6po+ppU3eQzmvb9pnSJEkAYRifhDEFgRjbJ3H2AaTY7B3qMOO1Rhy8PTpv6/lf7R/F39Lp359Bfs2+qbOv4P0rRr8kgK8s4BAK9YXZF//+CgBt9q7pMCxis3d0zcSAVizB6kUtUi9mz8XvByWseC0SIc2ZfXEUQYrfr1O+QLNZ7D2gr+3HAzSjgi++vwbYOCye4gEN82v58u+/UpCheHt03jYTRMT4LN4eadOlXtjZF7CfzYJEOnBZwAMOqbo2zSCxP9hlrBFAjDvGR+3VF4DgAkieEW2aQATE/rxKEcUn+KGuwhHN1GEZ1VzElFtzB+TZIUHIVe4t7uxgRQSansnJ5DjRFClS1ToJm4aHj+RlgWmtjNQcexpKWGDaEOhUdWowSqYXeVzBFCmSKjp1pkXzYgmbxy0tKhhPBnXkIpt3Kkpc8LVjQ1tBg6yR/5g4A8sVkcxuLtVeT3sTGrsJDd8PGDSSm0ulU/KeDE9Owp6f7KHV6XZrEhAa6kt6GZURWrVfFK3OEEGXLWdOWY37iATs0OISJ/jQxhHjGWwaEQQN9vcDhi44AzavjFSgllXtLLSqODTdWH2FcQWbAVFYs3Ywr2ZApE5z9PCWBNttyn5LRveoHqT60ZoFKnLh6RalwhK1/uRG65hhx7ooirND7KJsW2PkzkKXoRFJBnudI+/S6X+7YfmLXYWMkfwImLrk2zQPvd1f9ALi1DAPpOieInRiWKkRkN2zWLyYoxoLnrkEDiuTFBR4TzSZM1R202YYTnLB3+1xx+leIP1chko9+LmYIfcYCMa4X0G8vzWM8NLwg99Jrprbj8snmfvj4+Ppi876//4Tjj06ff6R238=);lineShape=1;" parent="1" vertex="1">
                    <mxGeometry x="-19.8543684300123" y="80.89026517258702" width="3.170574770721671" height="3.391839129882688" as="geometry"/>
                </mxCell>
                <mxCell id="34" value="" style="shape=stencil(lVrZchw3DPyafUWRBM9nx/kPV1mOtqJILlnO8fcBa8PRsDnTG72tR+ghiaPRxPiin348fvn+cAnux9vry+8Pf12/vj1e9JdLCNfnx4fX65v9uujni3769vL68Nvry8/nr7d/f//SLfuvP17+7G/4+4bTJKF2VHD//PdE9Pbg15v90/V5bx+k+sk+SNJz+9DEJ7D3jdhnKWiv7P0qtYJ98cTeSYlw3pDO7X2RnCf7KC4Q+yi5TPaJ23tpbbLPomT/TVKYzItUsv0ynDfMm2Ty9iRpPqxtL+Zz+yhhTgZ/J3skuNk+SWTZIGkOloWjkPdbrszesXB7x+zz7B57Eol/VOK8H/NAJvuPUsE+SyP7sb+CfaPV0qTN51U/InicbVYtAFBppLx8HfmyAbIEskJPiTmf1V7BUsIKcs6J6MVHArAUmIMWlZZ8NIqbDx2zRHLoFEaQNkAbiXscNidxJiF7hWOAgiyU4gjlcR1HSXMcUpFG3Fodlk72o1iPAUkKEFGkXNEcFn+u4siWmuKhi2Ur8VLbwrQBjEzZlirWf6m0Hlob9DMA1QLH6sG5EdgNkcaiZ0u0uSFU2yXJbwPonEzNi2OHqFhybeOpM7+WeUstjWw5BsTRZDZAkVAIYCHiVmky1YbMam5IDJBH294BaEGEwdRbL3mP5XHNVakZl8jk1FakuSKAZVNxKI7MTZ4cIhuVKQaCAuyIEOosjoTaeAj0lwW/EIBRo840YNnHCsLYusEKpoFIflsDwexzNJk0IuFbeikJ3KqqrEY9U5EJa9TysbIVAqZr51umZBZdaIBMlJ4BQJgbgGk3A5QFEJjU9tipaxybPN3SAih8S60igPF3d6siIJLk64oyIED5CnUFsEjryJz9lljgdLSDHYCltwHS4tbKDm0AaEHWR/mWQDz01GCR1uH1HYDRd78JLMnHlLTFoS1bqmwF4/sVwA4dljjcXcEtbi3stuGxoXQv3ak4RQC7HRogL6zhWLZ6pPueS3xLbUnvzCvOL+lNeSksuXSn4uzG/7Ga1nEl/7+s8WFAXgBpEM/ZLchDTWfadq3HId0XSsbaUExbU2R0H5crh7VdRsamBOoiXBubNlgyz4fu0oEATM0kWCGOJ2d6CVqWKV12GzVFlgGQx4zgGLAx6U6RsdQobYj5HYDJny5cV5FI6qHTli4ApqXrqODdlgo5Q7+QVAQwVWlxBUXWZShxq8W1gZfiGMSd3hVhhTDY9hhQBvXu0ruwO405Edi70tFkv5ctV0U27WrLVMBiH/kFGVLDssuzwEUsUcvfQppiW5pi4RMy80mb3ZobHcH19gGDikSTz44IgcvcS0VxhpU48+WMY7WU6ezE3gdSOvE7UFqaYnJUCcStZ24jqUKltGYsoHhH8xl7z9IhhjHVOtWtAHB0OtNH6TBLLEOYHgOW8awmetutOM3RQFPJRC18C3B0zheQWEOhk0ePrGcrsnGuW8bXYbSjE3uYRflt2HRiH2bBaiFhysqjivGRK+JlvB+o1NORwu8jGSrc0sKP1LwOLtyIgl7EbHG4rkbKjV5RnfOi9xnHync+hTkkCX/3Eja/n49JzB2gphxtHsYQUPB8fqbL3cJRFlXF8nL8y0HGuaendGL2KYE9u3KaPaYnVRS6tI1A717Gfg4/pbL4dnugH9oz+n6WT6PcP3A9DXSiavbwqVOpLjX7iJ9eWb2YPQgupcramkPF/VD2STgWUcoPH/5Uftfefrx/l/92fXq6fdbf/x2/49uj2/8B0M//Ag==);lineShape=1;" parent="1" vertex="1">
                    <mxGeometry x="-15.583949529188658" y="80.55102225861523" width="3.1370354041534614" height="3.947679343994637" as="geometry"/>
                </mxCell>
                <mxCell id="35" value="" style="shape=stencil(lVrZchw3DPyafWWRAM9nx/kPV1mOtqJILlnO8fcBs+Fo2JzpLb3tgZ4hcTYBXvTTj8cv3x8u4n+8vb78/vDX9evb40V/uYhcnx8fXq9v9uminy/66dvL68Nvry8/n7/evn//0iX7pz9e/uxP+PuGU5dzB4n/5/8figv1v19+vck/XZ938sE772dAdk0IILuUECD+HCDBSZgByaVMANllmQHRFbIkFaewJHWFLEmr8wAQF4mWojqpMyA4zwDFtdkO0lwq54AUFoAtMhBAchEA2UUlgOo0zoDoKrFD9q4AQMcjjgEytL4BAn9DRMOJH7s6BiRXZ18KzYVEAMX5eQ9hs8wxoLo8W9ocntkhm10BEIfDnwFqmwFCDWcA1RngXWp0D2EGVBeZkrILZZLP1FezujQ/PzlP4tMcKUFScoXFQnFSQN6T9SfFcJZhxGN5W498QN6CORWQr2Q9MTrfYP3MI7S5hvKF2Lfnz1n/0WX2fMtVaK9M9N8T8Bw0VhKIg5o6dF6/+RsrIXX4+86hA3mBRVSbE4uFTCAJPoRRw3ZBqURFFsSQV7IrRL6gR1seYlvecsjmQaYzYgIreJDczWSsog2H2ZUbFjK6eKiFADMxRoAVfSUhI1gvo3dC9CPj303eYoi56ND2Jl9cpc+vswNZveX61Pn5Vm6FpQjMuFZtGYtKmOGsdiZWA1yFiMyjsB3KVyzdVkQi0acFDDhoEU4DrQbMGi15lKkz3ijzkkqjWfe9sm9ZhS/JjIxlL/G8lQaH2wCVJ8aCaaWZ3gibUD+I6wZQF8gejLhCImqR1wIjfbMdmlVzXmwgdFqhqSLK4HA7QCFqjRmTUas0+C0WwwJIJDpTxkOLASJjRPaGvCyJxVse54H9polrlIDM1ACBLMnCpS2GYyytBiT8LY3D3jEgYRLrvkQizrwfqpp5a2VVM4yT3wYwZyFvsOdJRgCjjl2J8x5qG6fDMwBwIwNEtoeK5MgASpyvLVoygBBLtzZK2f4NTEsLGzEAOzEboC5aYuWwLYyzcQbWARUBzFv7kjwCCt9DnLXUAj14dbUqAljEdcMFBAiJafMl3LQB2KbLyEL7JTG1FuRhpqXGNp3R0gZgxK1tPHYHUOYaeeSIHcCzeChIHcz5WPfFAFoRwMiJAWpCAOMaZun1DYy+GaAte6BvaIO+7/fAk0BZ0gyroj3i0mIHxsj80srrpiYkscfoYmpWUQyQlzcwhvVxQB5VdlcgMtNrXNx1o1DHABl5a1cVWb7vuRdiNA02cQzYCNiekrE3yJIFjBwwslHwAN3ZCSMbMtjOnmHxlhDSmTaaRGcMSzMCmC91DicIYJ255LFDuvP4MyIKp9AeheQVRnUxghpN+FoPmCvr5WnE5p9ZjmUmDQv7TpTE9YM/WE5HGTvr9oSljrL2Vu9mLWwjsgmAx6NfzZTEhYK8siolQL3lChXCU7XaeRf4vfFxxlwrZuOilFauLbQ2+P5Zw2fesUWgsnMfpozefCfyYaTdrUHReAcNc1ifNxB5j13w3mAh+vRo4d7AIfllqW29QUQ8wmNLOHqatP0yQsrjqHIiX6EhJrzBgvoxj+INK2w5J3rIUKRI3eKsZ45sO1SqfztWwRwljSPECRsZ7rUBeMDY39AS6z0pwl5CxjMMb7mZQiBkCh3hdRXNW07UwpZ4oTnEPdRKwTKFYB6hbRll0Y5E1EFrhrznGajgMZWzx+SRSPl7U5qE62HVOy00ikdwquMg9C4f2bTSYynefjiWl4V/0JlxbyHhVIdOyRYuoZQEWkEps/4TjZcSMCK3juwZZ4SpYBkOeyyvWFLfc8AZAGpqkFE1zwBQ5ftgiE1pAmZpYxbM57pO55gMjc4hzGgCgxdPtWpeAV7aSwPrRMZlCs/b4H2SALOmSGdTaTkGCu+bp6XB212D3VVQbL8KH9vHhcT2TjpLdnEJHqEHeGPucMBRPpS2v/GiTBoNqLNhAVAcoxR0phXQ+fpVnDsVEG6lFDoI7gEJgHqHZQKrMHl6sQZZgsmz0/sS0F2e7FiWQTk/xgo2B5RPpmW5eVQpCxQs4f1mEdmvYAk0g7GaLMtdq0JvQskYX+3k6VWrxb6FkrR1bFzusFJoCnR5xnE+eHvtvrx9eL8q9+369HS7abf/H6/W2U+3a3n6+V8=);lineShape=1;" parent="1" vertex="1">
                    <mxGeometry x="-11.654513759352312" y="80.09350812713612" width="2.5613633264054383" height="4.220672095197375" as="geometry"/>
                </mxCell>
                <mxCell id="36" value="" style="shape=stencil(nVjLctswDPwaXTEgwec5Tf8jM3FqT1074zht8/cBq8oVQWed6U2WsQTxWgCa5O5l+/C8mTy/nE/H75tfu8fzdpIvk/e7w3Zz2p31aZL7Se6ejqfNt9Px9fA4/35+aJLt6cfxZzvh94yrlZJrKM9v8xtHLvx58XWW3+8OvXwJnXygVIF8secXyvyxvGMm5v5CjqpADVl6QCJXACBT6a+kNouHANfb7DMJMKImSqkDiFBBXkok/ZWCI3YAEEh6o0OhGAHALWFaADER548BRd3aA5JAL5VoAZnJIYCnnHtAIg8AuVLu41AcBeBWPS+b5ItUEwAEm92lUkSAZONQPfRSvqT/BRAogvRWJ4oBVHIg0ikQewtAGqIanS2ggOQLYiOtgApySbSC4wAAgfNMcdBQQBwcUx28lECJXupxJe8B7zF5I1+gj3hJzJW8AAMCBRODTBXcR0mxsAVE5FJna0EBAjQoZf1l0RXAgzwK0TJ3AwCbY1yIfQUIQIOmdhkAGRdPTjYMiJOyGu0sABKA8qq5UoXMndIQ6UoBAGIZ4lCh0SFTGggAdVCJtnhWXfh6MoWlWNYqgF+dXOEYNAfEK/ICKEbbpXFSgUw/TBktziAK3rYelUft86o8GEqcX/y37gvgQjrkiPGQJw80NErqTW69DQc59ldq3RP5KNvUbv0ZtCrR3mZGBjy6KSf5Psxa4QxYT5LNC51iPAIUS5NtTgI0GbTz9BraJIbK0y8++eSspwDuvXRjmtTzzMx9Y15tNpgBF0/ECjAzxo2Zu7m1N/rGVK8azMyN9wZVUM0EDfcSqfZ8vPeMFjMcSDRoJga8vLgun6yDtDaAQ6MWOxt5B+zVLmJWEob8laLdqnBH0MY5+AfJF72uvT9cR9Ky3nzOXiVDtucjf+oGZvIBx2vcOnE+/MeefUNeH/4t9U+7/X7+JrD+334E0FfzBwS5fwc=);lineShape=1;" parent="1" vertex="1">
                    <mxGeometry x="-34.86273706198085" y="105.64479179670886" width="0.44714865522126823" height="11.784791490045516" as="geometry"/>
                </mxCell>
                <mxCell id="38" value="" style="shape=stencil(lVvJclw3DPwaXVncSZwd5z9cZTlWxbFcsrL9fcCo+OZNg9PU3GQPeoYL1gb4kD78/Prpx+ND9D9fX55/f/z76fPr14f0y0OMT9+/Pr48vepfD+njQ/rw5fnl8beX5z+/f377949PQ3L89cfzX+Mb/nnDeRfCAEX/79t/BCfp///49U3829P3K/HUQdx3Jl7rlbh3JTBxKSAeyLcHFxuI+8zEa0Rxf1s8Oh9QPDLxnFC8MXHxuFUinlxG8UjFBbeayMlklzuKy23xMnd2Ec9EZ4qr+O253BavLuHaM9lqdSIoTtbeXMW1F6IE3SUjThRYnMfFcPGOWy1ExYJ+jPZB5YNLqDVUXlXemCuX7/ke+eQq2giVV7286/uLi6hphShmqC6Y72fyzXmzfi4vd8l31839Mnlx7Z796sftnvUMj2m0n8lHV9FlUvnkyl3fn13B+6rEk6jnKbieTuKJ+pKM0S2y9bTpyC7ylX1/d/l6PXEa6FpeMNom58l+k0dvdcSBtXyYUWHK52nQa3ld7vX6y4zva/mE9lhpoEjZxWv32Vxk+y24nj7971peQ0sB+U7cc2oYdcVldp56vxXk6fnLdGeH/hz51TpOq310BHTyCzmgx9WYEMgR5YgZmwIy0dGc0EcogEXUnDEdUEBlAJM/KKARtcvVLCnSLDU3c0qRpii5uyII6GxJgp4rHLaxzpmOLOYEaOSUSkDfotEzENUoEZODcKSBa0CayfgJwO6h5JkwnwDM/yqgNwQwAyrFNfMLQi6uVFeqAbA9tJkJvxfQXcx3AcQFcw8bgNy1h+qnbr4XoPZl74EB4tTN9wKScTMbQDYmugGUmRq8F1CNm9kA2tT+A1BohVg7pssKCCT+VHvThZZ9LWD9oQCWMbc4E5wTgNX/LRl7qLQ8axlrFs2KA/sFtemAAHYPrWLWPPJo4iqbfh/ctNA8shkT3VS8Xavza7+kmSHbdNdMLCGgkmPtEVOTwVeQwN4T5qoj+STOuBtSQAGsmO0m2x4AcnG9zmz/BGD30NsC0Bigz1TkBOgMIFhxDqKGAMRjSjlydLJp0ZIiICAwQJws1QnAnIACICgqgN206McVASzPFUMvDQApHCSbwifRBEsyusqYKCUl6hjNKSVGvRTMyMaxEhNVQDenRC/OsAtDNdg91HnqZwC7Bw1Z1854aCtfklj1Jq5STAU0lsSOtc2K6gRgmbH0eYgHoPKb7lhUahUXOQCraD95h1sAKOO0kE0cALqUKiUCFADZzKWyuwUA5kbLKOGbhqCoJchmSZBraDZe2U3LVOYDILRCUQCYaOXZvQIgKDbO2Ivx3pp9NGbTguWAhnrGsCgA8lYNxJ3/AiSJGvUC/wW4OA1iwnyroDMeIYbdtCBjrv6cVYrBewxBw1XxNfXrm5NG08pxEQCQO7XvtMqbiIg/IdyqwSLk4FtvAgICaJTrWO9eFnkTAEs6XM97f6HTHtnYA1x1o+yMdAwpCohcN1CZGg8pgu2mSxi7BQhG+zzXviBmDyxoCZZNclBINwHm4mguINjbHDfNtFUmVXrWpc0ejD0w/mecktFWVmeJKZuGxfFf8FAg74y6Yyk31sTTDfSWsksGuvkF1qld2iiNiytAZAahAKOubWPURl0Td0x4rI12s+3NDRvlYe5uABRaCmgsAzKheqT8fA9AG0vaGTVkccKJ6YuqHbFdeK4rWL+OmpmfEhRaWvfHTY51DWi8x2F9ZSuUeLDuu/ldNg0RpZZdgg81R/V8SR2pvsKZu+F7r5WveMrniOn05ULHEmxVkwPPE/v8+Kg5Gq/yOzavU+aOrOE9pEDpmeGFTGXGaDIxfZcxzcHuoRmmou5qcCx4CyWAFiV14W7GFu2F1xyWFiiU6lsQD2W2n95LbXAWeEGeFH5xlp4pPKBYAmhj05ZiKryqsSRW4TmcpckKd5UB66bI6ftRh5ljpZmuJRMzpWcWdGWm2rogRPNU+PdSrpkq34LUzdTzDdrYLCkzntkS05kqX0+LU2JUn9b00OQYgxQb+t6wXpQr90Y1Ii1Gm6l3FUBbQQ2r1xhoej/aKGAP3lWSVWrcB1cZeD0wWkHQbOp80wnnWRTASN3RzrreQ2izlbkGBEMjHCFmCRgtOdvOYj082/Tjie6irVhnEb8G2MZlpfewaI1uALb5ugHY9u4GYBvIG4BtUW8AtgnOAYs2+xaAjfwNwI4KbAB2GGEDqKb5ugHYgQpeZS1GNiq1uMVQSJ2/uQYkpB0UwBipEnGKLBwjxWtAMMda+ATGMZF8AjAaLht6c3T+yZJyx0pxzNqwIamGw+0KYLOFY0gK1JsPC+ZipqoSn9vKCwBjjbP1GomPrUfjyBIdGMzmCYACGDOYvbmHyEceTcUeIs0qx8wgOAFOIlzKvBOATklWbKMEHthTQQPajDFmQ25SbnOMhUJPhD9miFgbN5pRJpONVVpgJY9jsIVOFYyx3Ov150nIreU7+pc8S8C1fMOnJImWb7GiO0r86Ykd1KAVazR5W6Tnb8e6IyV87Nj4Rt6MpW/kzdg7l7dj9Rt502vdyJtnAVt5f5e8ZRi4vHk2sZE3zzI28ubZx0bePCvZysOzlY28eRazkTfPbvjklHnVsxOHmb3NXBbWRJFSyOa9U6Tj3OY1VaS1uHmrFSl5bCa5I00IzDuzSEcNLS9Aa3DLMNFpNfMCL9LmgHnft/Gx6PIjfYlh3ibG2Xpea7A1QJbfBoz/fAzJo84kyr57jD5pJmU3xKHVmmmB7rE9kamKeWTRt+LhrsWAAmeaC3rsiWVKF3qspBJNWzzqTJpjTrfEPYizfoQR5wps1h5pAWVOJlL22Jw7f/9x9xvojbj+cXlu/eXp27e319rnz/F5tv7X29Pu9PE/);lineShape=1;" parent="1" vertex="1">
                    <mxGeometry x="-34.71657669786532" y="104.73897952561211" width="95.4105489987685" height="12.620059253935027" as="geometry"/>
                </mxCell>
                <mxCell id="39" value="" style="shape=stencil(rZvZblw3DIafxreC9uU6bd8jQJzGaBoHTrq9fck6Oh7xP/NrBuidM9F3tJEUSVEP6d23T++/Pj5E/+37y/Nvj389ffj+6SH99BDj05dPjy9P3+Wvh/TzQ3r38fnl8deX5z++fHj999f32lL/+v35T/3C36+cdyErFP0/8wff/vvhl9fmn5++LM1rNc1jvd48OF/s1z1rXmzzGK43jy500zyRwUQ37FQzmWpyPZnmP0Z32jxj80rGXtywUx3k682FtjQPLsfrzbvL1TQf6Xrz4dpYmkfX2K4GKzTZefL5EF1ev1/mD+ftZenj0r7x7xcX1rXvrrDvV5f90n64TiQhNFfX8cgKeLL8obu2SqYsQWCADKBaoJMpiLh0IxDJRdKDSED3FqDaEl2FHpjMicJkBDIB8tTuS4AogerYAIDNoViDIkAjOx2rNSlBBkkslgCtWaCyjWsumSEV3kOzZkuAxvZBhN8A1UW2rMOqjwA/5Pca0EwPMiti7JIYZgAK0WgBRrdAZUBwtQDArHs8GVIlk07JnmUKkJ0WwBqBDZBh45prRDRSmRp8AJ3vg4i3UaAxD5ZzQAzvOiQ9NInGCTBWUyl2hNml1K1dEi0vbNIifKvVEA2pBMh+/vcE0uGWnAPBHleyM4NMOossrQoks2KWLyd7nMsn6JCSG+uQMjcCOdtlzcNlIhryvbrudEkcqHOKB1Cpk5HbdBUnUD21S7lbjatpmudrQF+HVAv1qmRNjNWofZqFc6/NzwPq8ExkDkSBSnBxHVIL1AiUOD3kA4hUvAUwJ1BLHEj2UGyZblzJVrxbpcJXyowhDqBTQyaAmUP31AMVUTP70OP0oM4BcaDXZe1cpwVoxqes1HUo3a5S79NNvgYYb6YP6uaWMf2vCyCzZR3WdRCgkEmLQmYA2LErwIAhVTLpGlxqMCRiZir4rQIkInw1Wq9SgEBWSQDj3cvGDTakNJ3/C6CxSYslBdGobA7JGjIBWPBZ87RClwAxlQI0nAPb6WJdB10lNuli44d++JnngDgn1QKRzaGe9JCIba1tetqXCkR0WoBWLMD8Vj0+QB8K66HbPIAqEJNWOLIUILLU4MjaqKgcUDiHynITcW7TJUDMjBxQJz0wIJ/NgSxrKzZPtQPq2T4woJ9NmgHDOlgKEPHuYZ4GtwJxOmy3AunEtlKg2PB4B1Tra+yAZvMaO0CMyl09DG8D8B0QzoSPAZDu2gHp7NhlgJj7+3ood8qSAPWunR7VOrp7AG0rBdoMJG90TgRAI8BCmtFttNs7TYQIYDVOPsF7MJkTEXgW0owBQ6q8hwFu6JGZvgaY5G/fJIuH6wUAPodhVilSf0mBYufAXGkFBqwSyxh7b8Ms2TmWhjshhqdBvg5qNWViGJirq8C6daLngfgzuhOrkorasvyPAtECjRztKhzNAixFOyA7I3NgLtYY1okbPPM9wAGSfehc/OzB26k/gz30uttpayxl0nxI1vuOU1hu3AcB2D2d7rQxA2G3SjYajdxYYnCZ6I2XAmaVCr2BOFPSRrOPZ8QhkDcOSo57lkhA2ySnN0voKGDsRtlZcBP8vR3G/xtg8sbjSNtePYUM0LkZ6PZwl19oD93mNt76vHpWFwsEBoA3oADTavA3dnMAj0YAdq+IPtMOAK9sDxi/bweAZ7kDwHfdAeAd7wDwv3cAePgbAGOIHQBRyg6AOGgHQKS1AyCW2wEQLe4AiEc3AEa8OwBi6h0AUfsOgLyAAsRUYuZhB0BuYwdA9mR06gBhfkbtEnFdMQM0NglOdLE6DQkwizU6vXjBPJkCLNcHmTg9H4gxxlyfAndlEzcHCuYrBWB3QZgRHYNWVGDOVT1NtnGQ1X3z+G/MG79FLTdmpi98rhuT329xzo3pdZ3EXQn8N5f/xisC3Qh+a2GN66C32njNsRNXuEhRK3DXVY0CpIeC0WWnsV8ZJwcEK6sqHcLRTuv3CloBXkeil3JmSIVfXbap85chNVulCtIaqbdeykkai3mJejlqgEbPLL1+NemTQu29XvCayEwmzeYAV8iaoCG2Ei+pxTmgQHDRhKOeTxrEu3EVzUcu8AAarSPJHYoMC70n1HIEAxx1H+dAs5Ou/H5KSyrWHuSMYUGQFm2soiGmjd1P5WxrkkQHKZDmLfkB5HkCXANMbajsPS3aiFa8Zd3YlZmW56xDkll5tqx+fu8APM2rpTEj+gmkSk1lgnrPlHj1WbNJgRToVX5q1vmO/IxLUMkYO822aDHZapdio1W6WK4WK/V0sSBuDxhTuQOgqE8Btg9QNqgAWyUoTFSAmHssfYy8eEaLK5MF2D5g+aYWl7Mi10PlLwBaqNus6xAzDSCwyFUAZvl0TVad1vJ7VoJabQWdALQHKAXW9wB3FRtrRTQHjFepAFtWKJhWgBhjLMnWX9g+gN8qAKsj0bLyagGWBQ5wGSQAC7O0NN7MIVCfD4vv9VUIUaBQpyAcIcqguXJ8PiB9soBD3yeYwvUjk3cOxHkdcACZGgF8YaHl/Sylay/xpEt2AYYPRA4P7TyHAO9PPK+GswmBwN/mwOsZac+cMXico+3vefsj7dmOwdOicCQVzzcMHhp46n3CwyhdT6IF8O4qeJqAh2dd0p7ZIm/LI/X7xJx6W+Ep7Zm8ecjWU6X3UGFHpcfPEO3wzKkwwyVRmdfHtzXnuguDSfQuEKYaqaDBQnK/EfbJU78UxICb2rsfD26ayx9v7xQ/Pn3+/PrM8fL/7btG+en1TWT6+V8=);lineShape=1;" parent="1" vertex="1">
                    <mxGeometry x="-35.542599415422046" y="117.53854222114575" width="96.75756932887842" height="2.530854676962283" as="geometry"/>
                </mxCell>
                <mxCell id="40" value="" style="shape=stencil(lVjbchoxDP2afdXYlm96TtP/yExIYUohQ0gvf1+5O0uxvByGt2XRWetiHR174qeP7cv7Zgru43w6ft/82r2etxN/mULYHbab0+6sTxM/T/z0djxtvp2On4fX+ff7S7NsTz+OP9sXfs84ESrcUMH9md94CvXfi6+z/X53uLKvQjl39oliBPaBcv99XTDfti9Cvvb+BBIBgEjVAAp54FHx5EsH0JDRCrkShx5QiAsAZIp9jpiXNdcBiXLsAUIBZEkBoV8h6ic8BDjpy6ZBJwxwPaBSYACIJL1L+iagtCqg3xlZlk/cBPR1KOokqHQD+B4glNwjgKqFw3UofVprwnspU0g9oJJHAKba71bRBgWVTnlx4AJgciCGGKn0DSSJGFSaA5V+a0iligCOgolBiEEMQRsoWEAGWdIOTskCBLjk80Azzi07fh3hhkIIVVQ5SzMtBuBSoFStfQi37R3FYqtQoL3L1t4DpvcUTZXLQv3r+4g4WvsAElqHePOS4XV/mPIAyCgAsZzXAGAFDcGwanMJEIzGkIeYPWBV9lTKkFSQJB0cbManVg20Tps0yQIydikMrYM4T4dfZQtIoA6BV1aAlS6Wwu42pzaP2CXQeCuDKrnooPUsUR4ICUkAN5BwJQEBODtt1Z5BEdwioq72EaLgR+29iiTj0GU23iqyIVQJeCho/5uUOswvTNKv0EYnWKFJIjNr8XCOmVK/K+6M/xFwR2CsALCEaYA+S3dE0goAy7AR0IQemCMN0Kf1jpRUgGHJVhmcJSPDmhxGWSq2/RsNgt0axVKSMgI69miItY9B52MFQae0DL8Lh2WYpSSWApTU0Ekpj0y/HDvW7cXq7YgPVrLsm8VeFRCa58764ygBiqyq2bKxR5SnvRjZ2CPlrM2e7fcd8ucyWK/sQbyNruIj9mwp1UFd3lS49R8dIpvcKjafoGmaXLT5TMh+OPm75eBwQzAPQ82TA3z96FXEfXt9+H/v8bbb7+drk+v/7T2JvprvWPj5Lw==);lineShape=1;" parent="1" vertex="1">
                    <mxGeometry x="-23.79295516912589" y="105.32515606462266" width="1.268593740109239" height="12.6975044774056" as="geometry"/>
                </mxCell>
                <mxCell id="41" value="" style="shape=stencil(lVjZcloxDP0aXjXybj2n6X9kJqQwpZAhdPv7ymUM1zKcJG9wrWNLR6u9Cg9vm6fX9crz2+l4+L7+vX0+bVbhy8r77X6zPm5P+msVHlfh4eVwXH87Hn7un8//X5+aZPv14/Cr7fDnjPOZamkoz3/PX5jE/f/w9Sy/2+4X8sFR4kE+UgpAPlFKg7xQyEC+UB3lXSAHFIpMIYwA3QIBPLk4AHwgzwAQKOcRIOSAzTERj5wqC74CQKY4qhQdRaRSIXYjoJBHKlXikaXkoZ+jkB/9kCoFoJLu5/wAyAF6OiUqow25khMAEMpj6BVPFaiUYyfxAigUgNF5OqG6/uUmoKgNo+NqolzuA3S/NBpdBapUi41WCcSAJV12ow2SKYDgE6E6hoZUmEANYFJaupK3AZXiBIggNERprRZQPAD4npALAApvpdWUPcdMDFxdQ1d5eQTgtahjowVUYLUGk0wn5AQAU2ESXFw1XwpbAAPP6QnOnFD7FvdsYLYAVMnKVJgU4IANmkEyAaDjcq9bF0AhAbQKT7TiE0RbYJ1sQCcUypMNiCV1kykb7/hhEc1LV4MO0ZbnYEJG5F58l+GKyoBm0JSkKCFaaZyzGqRcjT3pP5zV3DPsg4Wj5K7BsjQBXkskL58pfq2pTY5A0fRpgPZZO5NlyqC8aiePJvxCt+p2qy42NtSXaEzU6cEMNNpIKxqZUu9Ri1ZdQOfVOdEkqQ4DyA9h6u1KtACWdDQ2jVSJRix5XTYTUOiD4G1AsrHUhjJAqw7nPNrQxj4E0OWxL7bBEqnkbY620RWdwLbzKtFoAnJTH23jN/C0zv8mp9uAD/LBpR79yysECD7nbfDpJcUjG7QKmapBEeVPX71esgpwwlTrXZ/F74mP/DC09rJ6FUdl3tu7DMN4iH2zqzjyVek96SqObodKvKlcDLug+jHb/VH/cHkmB+4vtkMxdJWymbKlB8R+o9PqEwGdev13ln50f/nsc8H78vrj+jbxst3tzk8by3X7lqGfzu8g4fEf);lineShape=1;" parent="1" vertex="1">
                    <mxGeometry x="-11.643436278704257" y="105.64736408443008" width="0.9743327165027907" height="12.940245709515102" as="geometry"/>
                </mxCell>
                <mxCell id="42" value="" style="shape=stencil(rVjbbtswDP2avBKUqOtz1/1HgaZLsKwp0uz292PgybEo+xQD9pa6PDIvh4eUd/Lwfnh62+88v18v56/7n8fn62Enn3beH18P+8vxqr928riTh5fzZf/lcv7++jz9/fZ0s7z9+nb+cTvh14RziUq4oTz/np4w5enB58n+dHxd2PtIIXb2gXzZthchls6+EiP7Qlw7e+ep5m1A0Pf7HpCp8DYgMkkfsReSBACRah+yxhBADIltTiVSEQAIFPokBd+iWgdkCqkHFBKQpczk+xhiIOcAwFPoY4iVBAGESu4AGhUDJuVAtfQAjQGkNWsd+qDVyb9RrQMyud4lPSKhLFVyfdC5UAKFK46kZ6s+Qe1QhHIftD6JgHwlkTOACAFVyddnqWgMoB9qbHWdO3Q+Yh1QmgMzYG7yVYBjJuYeoTICCqH8dn1ea22M3+ogUwj1EslGUpedBQTAbwWYQlTVGdSjym+2AI9iyM3jGaDijHuUiwWECgCpKeMCgKRP2ZzC8AbgktJ1dCmBHi2VUrJZYgCofihcxg3hqRiXSmvzLYAlX6GMVKBSHdiKhEmzFMUCkDAVdSlZQAUuqfRJr/eLJtwiUxyCKGjKlaHlajtiHRCHDlK9BWnSlhO2hUBSlryd1Apg1NRhyGtuc28dMHfkgt8VzSCm5C0g4iln2ZfgWCzc+mUJQGQKjWtLlxBdy0CN1LTt/wCyG+qgUw4tD84ucTqDAmoIHvZQhyud24Sa52iFU26kt07qDwaE6126bwebI6gPWvU5oAYalEz3mYwAro2DxcaEpE9X3dzHoDqC1kTdInPPVtURVIc4b2CLvRJtrnHYHfSdAV0IhkU0Brh9x0GNdftGF4KgOtcLme73AuoQYjtvvkEkKGSBW7ss7igJiLEEuybqLSiBoP1QB1daVOsAb/dKJ3A3dnkQMrjzVZuj0G4gq+Zsqe1gCYaV1cFo2bam7tDw9JyNeQLlde2wu7mg4pKIMYd8bv10N2e0RVoyM6RmtZcwvIc4vUAN3oBMKqkGd9BS4YJVLIaC5ZIlgrYatv+nDyof2+uP+9ebl+PpNH38Wf7ffu3RR9OXInn8Aw==);lineShape=1;" parent="1" vertex="1">
                    <mxGeometry x="-0.7133915497170165" y="106.18341409539198" width="1.5286006775750984" height="12.565273371203316" as="geometry"/>
                </mxCell>
                <mxCell id="43" value="" style="shape=stencil(lZjJbhsxDIafxleC2sVzmr5HgDi1UdcOnHR7+3JqaCJR9m/kNgu/kbhztAkPb7un1+3G89v7+fR9+3v//L7bhC8b7/fH3fa8f9erTXjchIeX03n77Xz6eXy+3L8+LZLL1Y/Tr+ULfy6ccxT9Qnn+e3nCVNz/B18v8of9sZcv5Ef5SBHI62tXBnmh4IG8UI2DvAvk620gZMp5BCqFfBuIgWQEdI8+3gaSJzduKaiNgA5ZX/MIFEoCgEplNFKMlMAKJZGMW0qOQroNVE+cRqBQLQDIVoesdgN+EKYw6pCFEgNA/SoDUCIGItU6AkIMYk8SpdHTagYBSitggk/NEIFZJZM3K8g9wHha1DPA01IoG0AzClmpUhwdp2s6tII0v65ApQzyQQHjB33CAQIcLRCRDqVFfwcUBKQWOR0gKDQCuVEHx0yMlmCqbloC1Jm6WrEDKlhBY62KBRJwRE1UphUcqDMKBGPXireUpuirsNwvZSNbgLGVogEKFaCD+iGzBTKK7zXnOyDhKhDmFVBSl9ZwOqAioJJMfnB3Ui5aIKE2/RHNHSEovmWqGwIb7+LYKVwzyrlsR4dFLWSmMHlOcA9yrc32AEoIHUbCtCXUFksL/15plKPZNl4FAsogjb6pHAuorp8HYsuXvkMgpbXxGkB7EErq2Kzedzmsgwm+pY+iLWnBH5VeOjUIDQXMtFEDbLyzlXTacMhxoRW6bp7JyEps50qdmDKI1rKquAIR1vviWn6tU5/WGeCHrB3FAA6WPv2eyTidXCsaptm2dp2NBQDRtbK1Ao4Y/RCEtuNuvkfTt8+tznV/EAVsyYmt9/qPgsYTfW3Hk2bn626w349tMrgqzuTHrzvyIFCnzsCwqE5RynDv3HrAh3gCEeds8eJWka/7ypZfbnPc9ViwIxjDYWQqW3gkVDd9RrzY0Yhba7jezNq/TacqEHfcsqKzJIpJttMmUwRB9umDgrvyevFxKvGyPxwuhxr9e3uKoY8uJyDh8R8=);lineShape=1;" parent="1" vertex="1">
                    <mxGeometry x="11.28870661090491" y="106.29098613540015" width="2.2662869209625356" height="13.68830862244744" as="geometry"/>
                </mxCell>
                <mxCell id="44" value="" style="shape=stencil(lVhdcxoxDPw1vGpsy7bs5zT9H5kJaZimIUPo17/vXukFrIOlvF2I9iStpLV8K717f354W69SeN/vtl/XPzeP++eVflqltHl9Xu82ezyt9H6ld0/b3frLbvv99fHw99vDZDk9fdv+mN7w64BLUSxNqBR+H34J0vLfHz4f7F82r6f2TUoZ7LM0vWyvKtYH+xikBgKoUkcHsYjGy4AcRG0AIKdUCaBIjCOgSSI5lCBpzEGL1E4AWfLoISsNqTQJdQDApxEPNUl0AJNeCKBKHgE1i5I6WJjr+gHoYo0AiqQ8ACxTWq1LcACjHlqSNtLaghQGqKJj4aZXkJAaUhxZanlux7OAnv04NJNMQupIcaS1B8mkDr1LHFnqOpfyLCCGICGMiCZKEHARzAMaSwK8thHQRRlNSVL0gH+6c6lyvXtAJ7rUMPNjDic8XOpXJzRw0cjMYSKcVAJQiTJVWxSizzycB0BLF4UwDnDtB0AklYMMBMerSTUCQGGTB9Cp1pnEDwBqSXKADGj2AGOlhn6HWwCYMM8SD6nDg96S9HHA/pPWqZsXM8oKB0DpHsBaAwE4wb/SfJAVyx7A2rs1L8dXBqipRL8LXJlRJGHeBZMBg9AshpoJTcXJe5OU1bLQPi6WmNG8mFEmx7cDiud1OiJYSEW6oxUjQuoAgLmT1zity3MxS2cA9ScEuiWwOsTFUQ19JiNXuu9v4ytTKXPEJwuNsrUv+m6FejKdyTaneLKUZcJSTr4O0+ZIclCs62PSWCwbYUlxBI1JY3Vl86BY50cAluNGkk7Fb9NYv5kH3Eh0ZAkLvpIcYvU3AlwhGK1RZ+09uaSwXoK4O1YlkgyCxJGiSLV+sb8F6eTwwegmZ84uJ9HHHuauPV/f+ZZwNE8k9jIvs0fzyPTaXzLCfCe4sNtKXtgT3UJh3WYLe9YIRcrCnnFp/ggEO+z93e+cfPmfKu/jYUfyzbf5q/Z4OH46eNq8vBy+PJz+339qwE+HzxR6/wc=);lineShape=1;" parent="1" vertex="1">
                    <mxGeometry x="23.184134889994994" y="107.57641137412722" width="1.2021817399028467" height="13.011167773986186" as="geometry"/>
                </mxCell>
                <mxCell id="45" value="" style="shape=stencil(rVjLbhsxDPwaXwlJFCnpnKb/ESBOYzSNAyfp4+/LrSF7RdkTBOhtvcux+OZQG755fbx72W5SeH077L9vf+3u3x43/GWT0u75cXvYvdnThm83fPOwP2y/Hfbvz/fH3y93i+Ty9GP/c/mH30dcjFTKgkrhz/FNoCb/Xnw9yj/tntfyTBIHeSFJQF4o1UG+kiqQLxRlkI+JUgCARjIaEJUSOCEl0jAAzORSAUD9CWZzadcBbC4cARyhSmw+HI1mpQZOyMEDMlMAYcumMY+ABt0qkXgEiEAbRLsTO0AjRZAZmnykVUkzACjVUaUSSYBKJVDVEXByw2VAJh0DV1pX8jKgErvsjtSASvZZHSBTigCQKY9GV4WRrs271d6Ech3QmPKoUjMbQD200hPhBBDopRgChbHkWqUEcqM1qskDCsgN++z8an+RQKibpWvyAEUqZYrZAyqoUfNiGo1e+eFy6E5OWR3RgNXV+kbwgAKMqEw8GcEom2KfBqtAIKsNkJsHMEi/mqbcKFSRSpavyQMYqSQ9sCtAALlhcWBntLUeUKQWau9WSy/QBiyZUplOQDU39b5WYM0t9SIeIAjQutdXgQuo5FofUSuAoEZjncn1jQ86U6E8AQQUkPWhIB5QUVEnX6OLVSAOtX0WoMSTDSiXLL3b1MkySu9EPHUNOCFsarpsrf3N/wHY1JRpQsDBq1ObObG0a5M6uDnaIHkwqhDHirPICFBJW+e1q0mNmKvaWBzrYYkMiIPm3rZWbANFWoMfcuY31MjkRKhWjAn1VjmxlxUnQ+tAVh9pY30ZpHeOFEajRWBfMm6cRxuMuWbQNYx9uxI1bsxAJWPzbrKzhRLkku0LjjEZv/9gCXJuTZjE2VZWxy0rmd9Q1/D7gC1ByEni+ZVtWRnUG/udyVgA8pDnoNKJ9UXxiR5asQJjQ58a55W1gsIM3RNncUT07OzmxFFCm6nViSPeyb7mA0Xg99xZ71k8AN3VT1hMOIsv3gAnvsXcOzIC8TiFNfQOeU2+Tp4HozVOVNP2eBCpT191fChvD+d7lYfd09PxWmb93d/D2KvjHQ7f/gU=);lineShape=1;" parent="1" vertex="1">
                    <mxGeometry x="35.506209926134716" y="107.25329825227814" width="2.2586063512993184" height="12.925539043838567" as="geometry"/>
                </mxCell>
                <mxCell id="46" value="" style="shape=stencil(7VhJchsxDHyNriiSALez4/zDVZZjVRzLJTvb7wNGxWQIjnqiUy6+jUboIQigse345vXx7mW/C+717XT8vP9+uH973PGHXQiH58f96fCmTzu+3fHNw/G0/3Q6fn2+P/9+uWuS7enL8Vv7wo8zLkTKuaGC+3l+4yiW3y8+nuWfDs8Lec6U/CDPJPmyfNTPhUE+kwQgXyjXQd47SnwZkCaFvFCRy4AcqY4a+QoBhSnEAaBGS8BGpZK40UaBPABUITaASgFcumbyMgAkdTOsAwoxD4Ao5NEJhcoISJ4icHSt5EaVUsEqVfImMiL5hAFpABRPbgMwxnZJ2KwToGr4xqsAQg4DeLx0TZSBlbxz5MbYUNcIPiKUEVBx9CnlJgAjQO6UXwBgbEQSsYAMKFcDFWcBBZyglMveAiqIDY0EHlVaWHodEahOOtUKEk3tmXQJQJkpdSsub40Af4JtaVdwhxymeFUlASOyMowtgJFKbsURHgBiImdU0lQG4ls0uxqVmCqgkOZSnliNSNoAo1lbeAFCiLMMKtisokWzWgCDsiiZQrAAj+quZus0AUBoND/MAGDW5GxZVEBAAO6xubw0MGtKNvgUgEqK9gJushJKG3pCNARysCwmoTTFEqMT/JQEHMyVUfsZZwEJpJnItiwqIKPgKxNF8QkilMM1dxBve7JmJdRVVhsazQ8ga7T+aIol5GmlqJ+iFcWSBJKJD+gOEqlMnEZ80NbYZL4NxmnLFmcA4nSxre5G1kiB0nxpkJdStK3uRuZTxpWrcuvVgFwmijIlcIfqKRgCZYqAD+8d1r92WKPj3jus/9Jh5anutgkC5Jl5Qt4YUtSs1kp4DFoB4EGrAcb43hjlGsCkPjwstkuPjtsYR/XvMgI2Bl4FJDMh45G6KTA6rg3t2NNGJcG9tMZSHQnUCitgXGvJzPon9Oy5XoKULmNybRsnkPpiIDb7nNqVvNRLmwLhY/f9eu8gVMwJrn9iFRCSzfcZ5gDPNli5L1NW5bU3GhsH9QpQZ1oIuL7Cu/T1axZ8nqQYcZQr2NZOh8PBNoa43S62u8CDm/e2Z8MFx8usDpTPfe+3kAd8bLaz8ui6IfRitLAmCkyxGQU769pl77a8PvzdLD8cnp7Oi+nl/3YTra/OW2y+/QU=);lineShape=1;" parent="1" vertex="1">
                    <mxGeometry x="-18.405653718936264" y="120.54289486537826" width="0.49856449667890645" height="8.457976549603712" as="geometry"/>
                </mxCell>
                <mxCell id="47" value="" style="shape=stencil(7VnLctRADPyavarmoXmdA/wHVQSyRUhSSXj9PW22xng0difcOHDbbNT2SGpJrdlTvHq6ef9wfQru6fnx/vP19/OH55tTfHMK4Xx3c/14fsanU3x7ilcf7x+vPz3ef737cPn74f1iuXz6cv9tecKPCy4G8WlBBffz8k1Q8e73N+8ugNvz3QYQirgREJukSABBXBsAKUqoxwBfpeoAyEFiIYAkLg+AAkAjAC8aBkD10tIxoIrG0b5JJfZZghvsW+pv3LVXaWW0r+KJxypJrX0jOVBx5jzImT+2jz18G/tKzhOkjOfxzvVXHgBcnV7AMiZaJgf02N5JC1OACOecaLX2gT7fm/MUiZnZOz/aZ8pQNyUsvWBvqripKEkw/DX2URIhKBI8EqLy56eezbUiszhC0CbNlHyWRPjjVeIYoJRpAtBUyphhRZEyj6P4sanELEpSgMZoO2mRTHyITspICo8iYFU5lbFHoTJAljL6AFazNjENA9+DsG/fel/u9rzql8Y/pjnQNpqKzXLpdb3fdr1kE1HtEdgH5OlAgb6heBshDFA2zMD7MAIQ5EBihEkUzLjEbCJJrln8yOzsaC9t0/Qrrj9iH5CkmWouoiSsaM5xDGsNlKgAmOqssad+v5zd1CGXjkS4hFc0UwtJMmnxAOSR3DVTMgFghkIt/RH7gNp73Aqo1GsMmRItILEj5S5rNgBlTk8FAR8aAyCI2QI86/TJ8hthdSxKyTZiZLqxKKVekRsyFca+lQgbumbGJURp7DOo2sqczlaPABBJn1ky7SyA1mi1CgkAZUcCWyen3Qv1kC2Aieal4gz5tO8Ory7q1NvnYd+YyKSMG62rhA1dKaBaaYsKovwutlkuNcrYVyYyVarFQCbN05FYlFIn59ZpXqN/CZgWgLoq/P2hhRObkaJU8OF5ZkLkREcKRpShKxQiGxDLzmgUYul75b54KF3SrlpgrdojeWLYCt3L9BVO3MYjQZCxEZRCXwNXAZSksEVyEt7YjQuJkqaJrX133beHyB07HzRrJi4ghmb7h3T3XBWriWqkIwu6u45Hip4ORazzphzgVSBHgog00iE52lvhok4ajrEbuta0+7IG+qC39gV+zZuju0Cx1EPJBrYL/L/C+H+F8S9fYXir/7EHMTWilkDLokXiWSyhS6X5RaP1Y4Jz401C7X1B4iXji3VZG1Vs4HQy222mHILTYSQR0kIvgzGVzThodGZivJjbYwAc673Vzn3P5RRmsFlIAGCic76sWgCsFSEm1QIYtTGPTG3+uRM/ApiBgygpaRYx2CtzJC6Q9hjXBX4jRTwpZwDUAAIdCMsbzJEiVUd//dPFKwD48OeXko/n29vLDy3b/9tfVvDV5VeZ+PYX);lineShape=1;" parent="1" vertex="1">
                    <mxGeometry x="-19.38647695461009" y="120.7540106052436" width="2.9848249167855925" height="1.9609347254238392" as="geometry"/>
                </mxCell>
                <mxCell id="48" value="" style="shape=stencil(lVnbctw2DP2afcUQIEESz2n6H5mJU+/UtTOO2yZ/X6hbqiKoPZ68rWUcCtcDgLrkD98eP319uEj69vb68vvD39fPb4+X/MtF5Pr8+PB6ffNfl/zxkj98eXl9+O315c/nz7e/v37aJLdff7z8tZ3w/YazTFo2lKQftycsJPrvk19vgKfr8xGQiAMgUZL7gF5I8wRoZEjej0tBPpf78i1TsyDPdl++1vX8BgzWRjqf36kDfTRTapO8UQXypVCZ5ZnhC3KlPDuU/Qjg0Zwo6wxoMGRShwI7wKgAlUSjzSLUKgAUyjwDPCsYAv7TeAAyU+1QpTyHOe+BPwe0aHQ2yiCRslCpE6BkqgigsRJKpZIBoFPrM8BIgA1FiGeAei6BSBelNhute2TOARZzST1ZgA2q1OdI10SG6tP/PatUCwkCLG71EodvMNI5cG0ntXOKEeoBkMeTc4CSzNnaGhWgUltqugtl/AaeVepOeyBwbkMAGBM34CXXeA6clZEs9wLXA/H5ESBbPdVkNto6JIHiJTqnt9mokHMAxxLllCALeI0mXV6BqM9VThEgiFwldly3WoARXImDSpUUvMEbcp871hY5ZDSlIM8wW3nQ3C6fINsnqrMB3X0K4uwhmsPcOxXQolOM2VYLwEEp1n93kgLnM2k43/0JSkfGgHOQR0m3TEjdGwnQv5LwIg/0abGNuD6I72zxf4GEamRz4fcK/e8JmhfyKiAhHBAt7rAqbfGo6wgytA+iOmS0gYzwBhOYi8eUeE51o8IP8qhr7vE/yKMhUoa/D/IJyC891u1NQP8z/3coH2ZsD7CCDE1L+/McB/HaW9ehghkNd2POOmQ0IulMFiogQwbVheE8gqgbx3xweUMTyE/K8+6OIyWigfyMcw15tAzKP6SQoLUljb3ymKOgxrwVtwWgaDzgmKUOQKudj9+6AGAZ8+D9g9Ed9O5tOA5xwBNLXXq3xwHt4z4ct9BsdBTTvf1XQu0w7N7+hjAItgaNrrxs2AVG2lfsGgA8CPwcIHEnrx2Oyz45BpXcKlSgvsoFxqgC3Zpt2aQMemlL79kGbXAO9IXX5jj4AK2oRHtss1v+oiVb46Tp615CNGwxl9xvqOKcl0I9+I4LR68ytpodgJnYAYEE5B0bSlxbnNrQBZXbYLNbJcHk4x7Te3MDImMZ49bhUi6jgdMWboV3ZrlFtq9w4HRmDTuLDi/fI9bQr/C+7HmZ5mqTwWr3LhXC0sXvsar2II9yYrshmEk1wTtFJ8SQEnjL9OkjlEGC46B3GY3+UaC/eQuY9ddxMXQu7xka72jRArituGFagOPmtkOH+QsWscuH+cvgRdlhqz/cSkOLLbKvA1DVOyAv17RoVnCfhvGFBY5g1k6qviIvtciNDkBTudU4NrPgxW65x2LBXirL3bTbgIz+6e8P7wP8x/+fO75cn55uX0uO/4+fR/zR7dNK/vgP);lineShape=1;" parent="1" vertex="1">
                    <mxGeometry x="-19.137934962139752" y="130.15929269732283" width="2.597948439828802" height="3.269788354758205" as="geometry"/>
                </mxCell>
                <mxCell id="50" value="" style="shape=stencil(lZjLctswDEW/RlsMCL7XafofmYlTe+raGcd9/X2hqmlNUL6sdorDQxIEcAFy8g9v+6fX3ST8dr2cP+++H56v+8l/mEQOp/3ucrjq1+QfJ//wcr7sPl3OX0/Py9+vT/PI+evL+ds8w4+F85lYZkr45/ILUwq/f/i4jD8eTjfjo5BwM95TzffHp0CuNOMz1Xp/fGYqoRnvHDmwoazzxRaI5OQ+UIK1wFXKYEulErsGkABtqEKuBbweKgMgUKgtkCh6AEQLBKEITkmB2hodCgYScWqAGMhjwLWBFCsVZIMCreNSJN4G6ArIDx2Q9aDjJqBQ3gQUGQJteJdEAeTPCqBGb1pBwxGFd83k2wzVYPmTs+tAJWk9rVMw0oweqOSApxOTtOFdCzQ6+c6GAjMuFXLZAsEBmVEdSxYQpBpMWTogASCvrOCBkKlfi+tsACvMbupPCXs6djZUJAIam2YF9T3K6WKlcl5zIJUdkMGWNF3ssVaqwNOawbVdwTETgz3lRH4jwVZdB5vSMmp9jc1ObuPBapL6YAHkOgVyW1IGwZHEiuUg/JJKYxd+KMCzEHdZjVJI5T12KQSTNK6sgGSgus7TWGhUfEt/Sigj9NT9FrG8Cc7/1OPthCq46ZkGNULj1fR9gyqkkm/FDNe5HhhU0hUA1+oVAHcDM9BG06DfWAFwRzMDm3qmGWijae7KcFbX1uhB36eAqRGDzlKB1Bo96F1Td0eZu2N0Ss72rnP/DYCoKdl3+KgFiuRbP0h898w6wFaO3d/augoEbyuE3oMEbElNNE2W3rQErCC1a0XJgVByiXK7owDnV4tbpWSqQIo7SdKGCyRn144xRWSsvWAxBVQ9bcRpBwu8q+FjZ0dXVqcyYo8G5aTL9tKN2xFx/X4Y1ChJ/aMBA1dp5JgSxe9N2Xpo+n7/qMj6SLHzFpp/46PHeLx+/HtheTkcj8sDze3/7YuM/rS85vjHXw==);lineShape=1;" parent="1" vertex="1">
                    <mxGeometry x="-5.876938138560263" y="120.54265783452357" width="0.34858182382219727" height="8.090124577007533" as="geometry"/>
                </mxCell>
                <mxCell id="51" value="" style="shape=stencil(7VnLUhwxDPyavar8lOUzSf6DKpawFcJSQF5/HzlbnozlmSYccuO27KoZ69VqeQ7x6vnu+vF4CO755en85fjjdPNyd4gfDiGcHu6OT6cX/XSIHw/x6vb8dPz8dP72cHP5+/G6WbZPX8/f23/4ecGFQDk0VHC/lm+8/Pnm0wVwf3pYAxzlOAIKlbwP8ELBDYCYyAUAYOI8AqQ/cxuQqKQBkCJxAYBAZTxSquQYAFx3sQNyouj2AUK1jPb6AL9vXyjKYM+BKvj/TH50gDMJ8DgT82jPlEGWMzlznkIeJFmjUa19BgHV/CRrX8D5Awm/zd7GR8+DKoKSn/wF8XEk0caTQU27Kb+ZKrSf8+uhvTP2iQLwV+1NviIlfH4T/0AM6jlSHs+TMwXQwlM9Z0cB1FvtT18aOPUTbuc39vZYcYoHDaas5ccIRU8VeNyI1PBixgC2R2pRTiCmntzYND5jgPLiGCXvIQu1mIyAQqGCrvfkx7JIMMupUBo9WOp2m4U05NYeVWlmW9YRDg4lZRmHHx402iSm7DQDqO0bS419rxHKaA4ES0RRqRg0QtEMmRRwH27bkynYcZyFGDgtbIPElRLotepJxmEpjioCMKWxE6rOWxDWWvvPC4ChDwqoY5SqTlyQhwYYK6kKOfwEcRZQMCAZHypF5LSQVAsoKKxiS6N5BYaaxoTdBABTRKNeZToScpp75awAAR1pGgzqFSOAku5Iw+oV9CFbqaYAOHq4c9yq+JCWarXJFgBrqUxPWPTbHkDEAjKupTw/AbCGpslPACRgFGBriSF3t1JzNg8OSTY3iR5FFDCuWo+aMEnXKXuAbGpD4wAmrv7spoaAxCSUJkDFtWHYeBWHPYSfHiG4SXlipvRKR0xNKigRbwbE3jALIHRtsz20pNPKMoMCXJAk9sQu0kd3AhDWIhTH2mAHW6hECmZLFViuPEvQ0tXBnjyJY1gDpjKd/GaN8RULsmQFma7SiAZy6OplSVwXsdsKsVrq4y4xt+2TXcylb4p7irUYjz2kAJXE0QBSlzd7ottqRIEDKLq+KS9Zi3Cua0jS6LMGNeDVxEgNFZUBbUti1zeNG4O0tZiMzaBSHzW0Rt0s9Bk7Xe3moLWL7N8vSF69IJkuPN4vSAb7/3pB4iwPqb0D8ZwvVJQF0GrbbwYWew9pa1mHVmskFIR9V1kxBOIgbXgz/SJ3Sbl3R2uEfPSw4322o0aDgELk2S6FHgsjX+x89VgO+mn9b8yK78qNqPCvXFPV6U6oYB+WnXEFKMCHduVS3vIEpQqjpJoPoHUUYLb5FiXEXdMVRssDmpjT3VzLNAaYFwQaBqTjFcAjXzTGRE5vvncBE/MfXtToh7+veW5P9/eXt0Tr3+1rIf3q8kopfvwN);lineShape=1;" parent="1" vertex="1">
                    <mxGeometry x="-6.801090267734253" y="120.59424120904578" width="3.1289686976023603" height="2.843347780137835" as="geometry"/>
                </mxCell>
                <mxCell id="52" value="" style="shape=stencil(lVjbUlsxDPyavGp8t/VM2/9ghlAypYQJ9Pb33dOMD8dystA3OJFsXVbSyrt48/Jw+7zfBffyejp+2/863L0+7OKnXQiHp4f96fCKv3bx8y7e3B9P+6+n44+nu/P/z7eL5PLX9+PP5YTfZz3N4tuiFdyf85cizf/78OUs/3h42so78cnKt+vyLUpyg3wVl6/L1yqtGvlcibwX9YN8k0zsLzBXB3nvJDCF6QIfpBKLcpEURoUiIREF3JBHBZXqrisknFcGhRD7l8sKXsqYNGQtEoXYxI0+RESJpC3W/vOqkCQpUVCJRkGlkSjBBx2dTlEii1KVOiYOXxyBao4dCKuCSiE3ZLVYRSobCWup/bxVIUkmJtUsYazOjCNIWBsMGBMH/GbiQwNa46gAaASi0LrFa4EGWnFQaCP4Ko5gPjTbkloSJRUHH8Log3pxTMFLGPOghXeZaNGqKol1jSRx9ME7J46BCT6qvcKTkkvZplrXqr1cclmKt15XUnKoeW+8zqLkhuB6V1kVgO94XcGjMY1hUkSaYAP1YHwOUsgFOK1a+UAS7aWaJHjqgJNiIuQkkYJ2ffit0FY6G1zvWKt8FaXypuehNirBKZrqWAgt94xciWc28qm35Sv5MoCAPMtXtf0O8sx+FVes/WyaY9jnKUCsVQChacqAJwiFghkK6GeJ32CGMzBRSUzhQzN17CgotN+/AXVj3a5fvyka5kHuQ29blIxd9G6+PZ/YHywoFvtJkt10vqNj2U3zBnOf+Ls28k2GI5VPJsGAEBkFgJxpErnPhivx0WjlPaODUo18oqSi2Ca3yJN8/a+8T+KSdYCNY3hcjULpPl1GXOiMY5MyRxRSsKRladSs0QW75wB0TAG8zE9VGQgqwMs0WQXGo0BavFqTIqmbmi0BXsJKTKrFjmMwq0ScrusmtHLBTKkdfm6GbWJEs/0x2P0OpJsytWbbL7gb6y5IXBszXYI4xlmSdRqLQyY0CvudGVLYKZXBGwNjzAN2GeZDjJOCo/WArbqOaE2ck4d1rG73O6aQbB6WDZJgCWPHtBkYGQl3WXwYw4o7GRlElAz7emvl19ZmUw++cg4fLX9BLwwES6lZAuZ5TQN8ZvgX3usnRs637KLd3tUgOnvQAcxixO2f34/4GjW/T7neZy/LT+9fjhJyrEzRnh9J4Wi1w9/1LeyyfLP++g6Ry/Jq7feUe+nUKgJ9CdqsrW+A8Gylu6TAlsbZIs5GZo8zXRnniGLkkDYxZ2x9IvkgIkp36IOIe+fF9V15/PH2vHt/eHw8vw5vf7fPwfh0fkqOn/8C);lineShape=1;" parent="1" vertex="1">
                    <mxGeometry x="-6.818268653827772" y="130.9026988133815" width="2.1171517334977694" height="3.125521210319135" as="geometry"/>
                </mxCell>
                <mxCell id="53" value="" style="shape=stencil(lVjZbhsxDPwavxKSqPM5Tf8jQJzaqBsHjnv9fakacpaUPYu8rdeaFY/hiNSGH953T2/bTXDv59Px+/b3/vm82/CXTQj71932tD/L04YfN/zwcjxtv52OP1+fL7/fnvrK/vTj+Kt/4c8FFzx531HB/b28cVTz/xdfL+sP+9fl+kSe1XqmHMH6SqWo9ZlKu7+eA2Wn1jcKwB7O1n4fiIFB3ChVDUjU3H1AFIuaBjSqFQCSBYRI7AGgktMxkqjVch+QHAXtNDMlENXkKWunuRIzAAQK2iQJQ0MmBUo6b7FQAonrAG2SGLmyg2FGktyDPMyA7MivmKQTlxkWQ+JhwBVQIPlSJB8UoDhKCQCEm1EDeHh1G1BHeV0BmSLYIYfJpDbe3AZkCtqk6iH5xEVDvsrDq9uAREVrTJU9gUlVdtD1UCvMQ03EWauMI0Y7iGpop1sgB5xuiaoOq7xBYfXOkTPKVymBGm2N4gRooCBaoZA0oBEjJ5hKtYCCw8TRAhrwoUaKRr4/4nCbHM0KTd8C2FSmE6s7gXbwVOYwARnI8j0/JQLVXLMlJICIS4iLBThUQqLWWgYk+Rn4ICpR2QKQ01L0cdohgLBKDcdiAUi/m5/oWuA5KhVm2SdnEDhSJIjsLQApkxChToljtEObKqiOQN8zaWYraoDEaZctIIN6EKVrUwGhfkYS5yYVaICtQg0/lygm31zTqEsUepdJZ1YKKAQLQPrdS9QAKmx0Pw/IQ3sXJwTS+zx1THIGweah2WNRcl9Qi5WGki7O0YI7JtM8CFkQ+WKx/YycAIjeMdqeTNhVgdPRj7Zz0c8g1ZCBwMhMpyMaUUTndIn2ngwUEKfB/mXXh3ZIQ0mXfSWagqYorXSuHWDGMtwbd4DOdO++kQ9ysutMr/T3Agia3hGrt8w8TScuBqhLArBjk6g3Spwf9bWYs9ApKsOqUW+Z5JDyyTRsDnaZFSMQgRAG+68A6ZcAQIZVp03yecjzbUC0TstEjfLgnaWGtGig4Mo0oZBD9WmpLcwGSXbjY1frobdT042vP5wdKeUFCr511VEE6sgUq1kekL7byLhxF3In7s1+HRJnSituzD3bW4yV7yfbD2LzfbHHnxtd9D3ih88Ev/9t16PcfvrmbHW9PHxc073sD4fLLd/yf3utJ68uV4L8+A8=);lineShape=1;" parent="1" vertex="1">
                    <mxGeometry x="6.224366482805863" y="122.13195293538425" width="0.6427076964626789" height="6.997208382900463" as="geometry"/>
                </mxCell>
                <mxCell id="54" value="" style="shape=stencil(lVjZbhsxDPwavxI6qOs5Tf8jQJzGqBsHTnr9faka2iwp7xh5czYaHeRwONIu3r09P7zud8G9vZ9P3/e/D4/vz7v4ZRfC4eV5fz68y69dvN/Fu6fTef/tfPr58nj5+/Whj+y/fpx+9Rn+XHCByZeOCu7v5UuKFNP/L18vgOPhZQ1wFKoGVCp+G+AzcVKAzFQiADC5oAGNfAMAT6EpQInUeBtQKesFSiUPdhQpZzW+xhGEq+MdOafnb9QyGp90SIsjBvsJFNhG1IH5mZIenzIVEJ9CUceHJQFgfi+cMAAPF/CRvOZEZMqIE2kEcABkkw1xohJrXkvUHIqpo+wVQIhbAgAEywrhYS0AwCOpS5qpABZ1muogefIgqFEOqMcvPLw+Po3tfsxfwYFjo6zLTJIC9s+Rqh7vA5QWroM0S84kKWCFxFZaohQOYEV29shCVAbilQslc+YAS7PwyNFSm4EqOHR1FI1YeMjsukR9pS4F8K5JLRr5KqP8rgOk2nU5Nx7FsQVIOqwtDUXYApg8tAyr07tJUwXR8CGarrZWBh+3AFnHtVUoYgIIOq7yhdGpJ373OKAzVEumVRyuI4Sv054qOkQZcV8fAq2QbfNsuP8LIJYpEejUAtBK3FON4ioOgy0ARkmUXetG5ysOazBb4iEMW4BSLCDgVMc8AdCW6rA4KwCDJt3zGi0ACY0ASrNRulEQRpk6WT4HKMMKbW5pqlFG2rdU5IreAbG1DqqtAPDQkripqFFb7NRIEwBonwB8swAYpc8C6tTZpWcgxy3+t2o1li/Iy5Ri/VtJ0BJLE8ymj2aqIEpigY3ei8lNACDXFnPNYKE3qLjkKeooiYNC1waZz5BPHFNFPt1ZqRQbm5CFy0OrF0AcduI6INom1707Ajh715CKQqY1jxiubDTaUWDrsMT0oY4lvtu0B1nTgxX8JBrRQ+vgpSfqNEScBrmxRl3SknrEPT9ZMrGV6MY6abc42QAKVGRUx0iMLLLeedwfVzfoCG+ghtlSzhnVjnWUJYxi2ti/oWmuQ6K2bqA2QDyW3LqBmhwnEUHQSfxiN9cpQ9c9Z0WVy+jx1wF+VOICyKMDbwGMyRAAfDcIVsH4RnFKlPy0AgakaQXUPvv7k7dRQm8rXS90puXaiMyeAOoEQCosAONKWDw08Axh8VELNRxOHA8DvADwe0k/tGFrgDeyzz/r3QbIj49XxKfD8Xh5hFz/3746yqfLi2W8/wc=);lineShape=1;" parent="1" vertex="1">
                    <mxGeometry x="5.466839166725549" y="121.44767566903212" width="3.679972860557381" height="2.337931409819655" as="geometry"/>
                </mxCell>
                <mxCell id="55" value="" style="shape=stencil(lVnbctQwDP2afdXYlq/PBf6DGVq6Q2mZUm5/zwk7TtZycmjftqmkyLocHTknvfl+//Hb7Sm47y/PT19uf50/vdyf9N0phPPj/e3z+QW/Tvr+pDd3T8+3n5+ffjx+uvz97eMiufz6+vRzsfD7oteyZLdoBffn8qSKj/8efLjIP5wfr+WD+DzIZyl6LF+jhDrIJynhWL400WjkUybyKjEb+Ujs59zNbfKB+J+aODXynthPXoK39kk8o0qy9lM7ltfcX7/F39Vj+dAk2HxVR+TV+l+klmN5X8WlQR4J9EQ+9nB3ee/FEYea5NE+LCTygiJ59B8eKjkAwjH6gwhEat+XUb72DO43gOjYX6q0YbyzAdIikVSEh73xDdFJZG9YM7Qq4MiJ1ESQNroUedMgqG1MWiziSBcouqaNClUaaTNFlxhYcT2R+wqoo7FvUqDAgphYIIriSaFGVJJxCVBH3gCPTSun0p3cV1ihbe1lL0oSB/CK4xkAf4EUdw69ENbuD93EvkKcFKoUgkc5SR77BxOC9QM8NgOnOXEkrHDJjeXdUK0EAVKVOhZfq32o7CsEUaPQ+qn2SyN1SLlSqAzlgdrBKtB+iDbTiwJxCbjqxjx45ygQA/nKdIhCDgEUiFOYPJtVaOpoE8GGZ4jSTG2UfqwjhTrVBivXZdobBYwfkggoVJM5Pk+WATQmAhQrsTOAoCWr4FgemqUYiwIrJkBptgpKGkLD1HJKXYJCjTasjFZhaBoaicQx6NtRyJ1JvNYlznx2Do2ZRRpoJ6yADTZG58ShqVm1zqUBhbcVX6PcYae8K+WrOw0EOsPOMLcon1k7IBA7X3ktzIBCMf4zA1noTr4WKoMEhq0TGjcvjff02xSwN6QZNcihIxa9GTWYwsqzr11iqxWiPikwap/mXcNRWgk+Zaq1JhqlNG0D1Ulmb0h2HSipx+2IO5hqLa6bOGKJhmyAEWUSJfDQMO4DWelKvK0Lq4LrS+NRLWXDdGt/cgSVaYwSAk3ZCWrJbMWJN5DaTCd+aD9RY2zumbzBT8Q1Nrpx+GBvDtAhjGAlS0OxgjCPgu0GrbQbXAfqVT70cXEg78Y6WjwkhecscCPGbEtUe/OEiLGBixob/eeLPaxNNx80wevFyHYT4xjIB1tBSm+24K6xHzr+Ha24pRp5dtODagmjP55vMd7Wp6PhR48b5HJ8Ncy23hyleEXthOL7SGmzfVb+deIJrl/N7Mu3vpdu8o20S5v2Tj4vQZx09Ec7aziSb+YmiWIomJyaS5h+o3Ekb++RaLtvG+nWL8z+1X65KTByurzAzCWJ/MBldKjQBl4CVI08Y6ZLAtTIV9JgS4ItYDFqsOwb9iqe3VtA3lv7VP6tV/3/lceP7bvC3fnh4fJZ4vr/9jsEHl2+Yej7vw==);lineShape=1;" parent="1" vertex="1">
                    <mxGeometry x="4.603176916364191" y="130.71469805007865" width="3.039746203323903" height="3.241513346513822" as="geometry"/>
                </mxCell>
                <mxCell id="56" value="" style="shape=stencil(lVjLbhsxDPwaXwlJpETpnKb/ESBOYzSNA8d9/X25NeSuqPUEva29Gkkkh+Rwd3z3/vzwtt+l8H4+Hb/ufx4ez887/rRL6fD6vD8dzva04/sd3z0dT/svp+P318fL77eHZeXy9O34Y9nh1wWXK2leUCn8vvwTKca/f3y+rH85vK7XR0phWF8o1NvrJVPhYX2jjNYHCu4+TJJvA1hI6ghQqnIbkCq1NABSogKulISCA9gJCBCo6ABgJubbgNgojU5iC0vCABkAwlRB2JaojjaInRCg0TICMlNq2K1lBChlhYErY6RLpAJsMGrU8UoldzJuA0onwhVQIZdyIh6vpJEEcMmyJ4zZoOY3YEMxIow2qFIEXipKLY6ABqlhNy7jlWrq/N0GCNWRfFUoAqPtxnX0UrUaUG4DaiAdqVGVFCSQvU6j0S1QA4FriXTMuMbdqu0ECsFHrlVKwIhmdSt5ADKiqU9q2wKeYNyoHlCA1bVuABpICGOCjgmx8sOtWLtyvBwBHGv0c9V1MQLUjXKtpSsAKpaW9Cw+EBX4tQjl5gEMCG4nFAdQyCYrK5k9gAE3NPlSZoCA3FopOroWeKXK0wmFFMShtolMpZeebbrKlKQKy7G91smtBQGa1yYWuABsMIDnUoUtxV7HiXxI/pjRNXpABnGwwhXFA5A8qVNbXDIOGG3UaNOVGmgpyhNbG6RGaRTUAwRlXJmKa4M9yFLUq0RLKdRHNwHghGy110VaYDXOmdSdEIkRIHq3VsxWab2nrfooqksm2Zx4MLIIFkD+SgmKOBHiMdLWu1HgZNKV1jEEVD4uvj+Y/kB6hpNX39ZiEMDEeR7VhpVnBSlq2riN1LAGICCBYu4XWClXVIynQJs0ViQrvQw17Y3iPBmwiHtA1WnG+mB6mLSSjSdoYrJEGQu9zT8J+Ef6bqsBC0Ws+ZHPJriM/CNdIKxmxIJmxOCn3IgtsJCJq9o9V7dZHXp5u4YYMojVd+fQRfj2+uqzxmZSdB8rj9mtR3OM5b2jROgT6fZ6puj3R31WstdsAeojI3xUvx4wIgcvLfD+loDT/hG1m9zr7Mo/aPLU2Z+C7jMJlwAJna+zyoo/oMT992ehD9fbw79vUE+Hl5fLJ6z1e//Nyv66fO/i+z8=);lineShape=1;" parent="1" vertex="1">
                    <mxGeometry x="18.477032873311828" y="122.87830416629922" width="0.6049134717580394" height="6.662736756338976" as="geometry"/>
                </mxCell>
                <mxCell id="57" value="" style="shape=stencil(lVnLchw3DPyavaIIgiCJs+P8h6ssR6ookktWXn8fsDYcD8Hddvm2Wk0vCaDReMxFPnx7/PT14ZLTt/e3198f/n76/P54kV8uOT+9PD68Pb37p4t8vMiHL69vD7+9vf758vn699dP48nx6Y/Xv8Yv/HPFqRKXgcrp3+s3uZBdv/n1Cnh+ejkDmKwuAMmk9T6gGJW2AjolcEKplPsCKIU4A0AmkQWgiZreB0ijnlZAI2MAyNTXE6qSgCvlRroa3TI1BMiU1ys1o97uA7iS6QLo7jdgNPsJ65WMqYLA9ehVU+rgeaXC6/OdGrAgU1rvwylRSvcBx3+PAwoVQCQ3b32+GzS4kNj6vFAHv++cCSGrk1f3IpDWA2qnigyoVPPKU7fAgEuZSiB2IgEm5xqvVJgyuJIk0pUVnhsVRFkK6ZrNQ2BQrrk6rMTmTgwAJZEFIh1Uvw0QyqvRjQrihVJewyBTDu4pXlstwLzWPIP6/fn/fXb7eSUt4T4M7NW+8Q5KS03U10xmJgURqEJtvRC36eLbgBpTx01Q4NKWohhlm3XoNkCm3B4+cnlEgBblyMtKBordE5X1hOI0AkYPNQnJmaFi903itUKiur71APBvAJMsx2z2UCYE0JmKB6DCYm5e/dcTGhOjE/zGOQIMqWra6sKotfhOwa/Olgr47YAaqnmZQnsPwEFhdKrabUDf+gWFZLI2a/EJgIqbA1gjQNGVKmmKACQzzg2z6CXUGTogutWzFhmt8/dOkTYgG+MEiwDI74PNJ/ahRm94KdiQMPlcGSUCBEc6stUBiK3eVGwARTbYVMYTwHCONo5eqohLFku0xwEp2QCEwAmOg03mnMjH+Eqy5TRqb0c3u+W0oHzwtmVLoIrY2mIDOgAo0nWLAx5LHBCmPTcaZtxPAzJxqCg22/B7NauuJ3hFQfnQW7zSqFmoUJc4T6rBVqBz7Pe0wIapbfOkt4AGruROlNUGH3EVeMkTsoeWr8MesbbY43qfXgD53IlhWvIukREgzaH8ACQI8Bk7aCsXOC+51yVMAgkOfLoHbg5Qtxv1Hodupx5waqnRZJvqf2/QCD51ixlw20eZIN1jdAAWSIuNxg96e5EI8AENSXfucRgY4xMCeLqtAG9zC7CBbfYhRxQYagx7H7LVq45WH7zVXINtQI9M7Xh4OHT9tFpp4PflxmoF9ZPbRsxlFhVoz5O8rT6QwSMTV2b7tNJA6WGLa0AXwYJooXH9NNoYtKQ7cv2s82hxcNS+g3gKqS0Wx1YXBEWbSZlj8GlGRG29C0bcllQMsMg8dwPaNXhuhYFsLAOQRm7L0uzTEj6hbgBEVj24eQIwyh6ZqnsCJHQlmdl1BgCJ8UrC+5UwIGiSAwS5tcR5zAGIfGPxvq1AEDUckDUCUM/gANmoYUBXdUtR1/KCFks//fLgxwD/8P1dxZen5+frq47z/+O7Df/q+l5EPv4H);lineShape=1;" parent="1" vertex="1">
                    <mxGeometry x="16.724243060238905" y="121.36671031668152" width="3.9098407366694743" height="3.2466346395071106" as="geometry"/>
                </mxCell>
                <mxCell id="58" value="" style="shape=stencil(lVjLchQxDPyavaosv30O8B+pyoZsEbKpTXj9PTKLJmN5piG3JbQ8stSSWj6Em5eH2+fjwbuX18v5y/HH6e714RA+HLw/PT0cL6dX+XUIHw/h5v58OX6+nL893V3//Xzbkf3X1/P3fsLPq13L5F238u7X9S+VfPrzh09X/OPpaY13FOqALxR4H18T1TjgM9UG8EwxGHwp+/iSKVZ7PvC/OOtPIQb+50jZG3wC5ycJX7PxDADvNXyKb+TyPj5mys7gWwV41s8rnpkcuECQDxgDcRHcILjJIJGL+wYSwTZemSVG4A4SwjJ+wQcqIEhBrjiSQqL0l+bbBkGTqgbBU8NRKiMtgtQBuHR0Ng/RQyLFSD6PBlW/uW1QiUdmpAhdSqxXXAwaRVALKVEZuS3VwYjcjXiMUq5artvV5smZaguwfHKgNkap4P4lHpt+UYVL2KVkGmSjBAykA4TRpRbJgZYnLcC0vFbIIy5FamMemjQNRO+iMVkZFGAg5WK6EjsHP+FZ2+7qE6jRS5NIbA0S+IJ4bPCVEqgH6VrGoUQZRJWJp7RlcAE3nR9g9SzxW/Cs3N3B8zioZPRGiC+j/8JTRDtJmOF1UVptk8j6I3gPJrNEL1k8YlAmLtP5IL8yh8PkPzi/2sFZKzXgf9PbreIfgD9Ns7PKbwV8kN448QdNwWqFl/AzIWVkB47wPwH+iFAbW69IQ0ZdyAqdLiXR2Ld8E38q8Ie1uld4JCucduVVPNH5TnXWgpc+DCaH06+v+IAkgrP9rc8NMMpYu8eKn4hvnvJUL6g/xI36RfFMG+ejflKs/BB8Bvd9L56DVe6SAAcKhpuKk5VBBhGSK8c5xSBEIhJTswYFaeU2TW65A2qiWcX6ikUMulySIeGnsKI0S1hNH03ESK7EyUCihFccM5lKgupD7mCoUViV5+5SNH4hF+1O2wZT8YjMgwuC6NbRIGUN9LZBtOOmZwZtFE5jsuj9CC/dB6BZEBzeuybpG5Iqzz1N18ZMi5MRuTSRr3cRXKJG1MkRHpUoW2qw3Arp0mjHDjs4pnoeRpewDJFEV8MMqHt7CzCLoAqlbaqmaTXVprO31Zn1w8MUpKIpXQKE96Fo5yCu/uLs+VhG9QedYPBINtbF3f/EZ/ug4+CWLCrO6DoHZXIrVjcylAmyxTjzuKFCeA9vSwbKOtmqvKl6OMYFn5vBFxSfpiPyjc9oxV8tkm8Fgwqy75GmV8ME9zXSDAON2B7eTS+agKBtGgUF6/wyLWbw0URkdJteEFHC3vuC+0+8/Hh7Lr4/PT5eX5vX/2+fl+VP16fp8PE3);lineShape=1;" parent="1" vertex="1">
                    <mxGeometry x="17.05837111132928" y="131.29374118501948" width="2.754888517465504" height="2.818279103382279" as="geometry"/>
                </mxCell>
                <mxCell id="59" value="" style="shape=stencil(lVhbctswDDyNfzF8gSS+0/QemYnTeOraGSfp4/aF6lIWQWkz+ZNlrIg3FtzFu9fnh5f9LrjXt8v5+/7X4fHteRe/7EI4nJ73l8ObPu3i/S7ePZ0v+2+X8/vp8fr75WGSnJ5+nH9OX/h9xQnFOoGC+3N94aj4fy++XsWPh9NC3CfKsZNPFHlbXj/HrpMXSgLkE4nv5H2k4rYB0VEKPUDIAQtiptSfEJhC2AakQLV0gOibkusAIeYeUKmCE5ip5N6pTClvA7K3ANY3CQAK+d5LXCiCOBRPubchB4rA6MLEqQfkFpl1gIapz4wsMPWqer23oQSYSzXZOJREpQBAtm4tGQOERDpAdeRAHEQ17o2uAaaGpPa9GcAUMaD2XqqFMnCrsK1QtSpVAMiUe5XEUwBxkEK1d6tEWHGiqdEHTpX0AOCds8kktb3ZOoLFAv53tnVApWCMEPLI6kyeLSCj3IjN7QuAIDdpb+178cIP6/k6p8LiiApircnmogUwqog4hE7dhFTyTYFFIBi3AZt+ml+oDWjjKhYQsA1iVMqwu2rfiM4C0FSss08WAI+yL5ArAwBV9TBHZVZyq0hjtIAMvDQVabZuhQUhtn8roGBANSpVOFL072rcirmAmihjemO3GrYxKYmK2tsalXlmrKeGZv/QZwQlHw9e0j6DToiUBxtgPQTyxcahgDhMJeot4IMm8EmAs4N3GmOAMSkgGC+pG8AJSk94mHKoHkol6TtfxXxmAvSRntozaMYTYzJsg1sot05IBhBbKNcBxW4D6jdERJX1FcPJtLcio5NtxvoJCAjEvUpl5uPrAGf5vb5BuZTntrVgrgXEIcdGdxbcOAMvsZZLnxrKvguYDxxtHDhAG5IGrs9W3SAq2lF8Gx/zjoLpTExtX5gBgQLwUih2bdI9i9Hq5y1z1U0OtXufW+bMgIRpom/1dVtGBcVtWMtaia+Ku0GdNlI3xA1l9eSAP51lAA4OnqEKHGx33irj4Ho4hMpBQh9aLt7EHco1y11UHHydR88gEjxkDV7ZZq54E/doHJO39yloN9IZYP2OVtpP3tZ8KK4Pt4uhp8PxeL1XWv5vL5L01fUSKt7/BQ==);lineShape=1;" parent="1" vertex="1">
                    <mxGeometry x="30.275794662494263" y="122.45370636637051" width="1.3568631608049133" height="6.391745348478421" as="geometry"/>
                </mxCell>
                <mxCell id="60" value="" style="shape=stencil(7VlJbhsxEHyNrg2SzfXsJP8wYDkW4liG7Wy/T00EjoY9Ug0CBLkkNy1dQ7KX6mrOTm9eH26f97vgXt9ejp/23w53bw87fbcL4fD0sH85vOHTTt/v9Ob++LL/+HL88nR3+v58O1lOnz4fv05P+H7CxSjOT6jgfpx+KZLarx8+nOwfD08Le61SdbAPTpwjgCQaR0AVXwjA9w10gGaJ8ToAO47jCjGJTwSgEuoASCqZbMk3CeOWspfmCSBJciOgSa4EEOyWSpaSrwOalHGBGqSRBYrUPNpXicRHWXS0b1EKcVGWlEb7vPH86a+lPfKOPD9JGdO0VUnK7F0Z7ecYXrSPomrtC6sDSWPOecfrIEhZLdACyQhp2don4lAvoVgHNbIfZxMI9o441NkERYBZwsEbo4Nakkr348x+Ik0I10t8tldRRiuio31ttOaz9WeNEsj+8bSRIkqVQArYx+7uGeAksoRo4kePgoSUpChyOo4rJN+DfhmAMxgi9VJJzmm0VaChP+Ja9zBZjU0GAoirsvGZphGo3xCdd5JJHCJ4cAwcnkCoHa3CtCde96nZDSHM5Pk520TFfhixY/lmD8z6a1Fp4wLoVo6tUDqRLFq+J0FDKzKZijMwsq7ZZqo6qWSF5rpPFhqBVT/IxCQeUpvRC9iwjg0qZg5o/YgzoPAzzPw/Axqt5wlgZIsXR8qzzZpjBqA8OcCNXkpgKcJJ8JI3KyQOKDY1AEjMS7kfcQkguYQ2YwQtztCYW+NqS0o7GxqNifTkVtYaoDfNGRzfEprVeIYpNdihVYrJpULlCw5tNXPecquOkQbTMkV71n8LgLJIF9tM4kak66ri0LQZAE5ceUnZGZoddtAtWENciMBFqBPLjWZ5JgVKrtMhzArKs6/aWQQFUTYCYQCJKpMp1N4C2BDZVjMhADRycbVC7APKHwJAJZhQN4nErehZeRSIka+w7oqTGiJeQt812keVzoTo7Ca/MWpHAsjNTj2QyZEURE5W5XoUBDkD1E82cizQnoUwVaPrKfPFVVP0XL+BI/K4AEYnRjOTBPXWq2wFhNVUqKLrMQAK2NB9pnHDBmxjz1zZax/e59kB0xvhgGnYMONM5uPnqu3W1B9xGeCt5mueipO/cMNg7P/fMGzfMJC0/tduGNwqIYIE4p9ZNM4Vw3UnZKy5MKj0mrNY8VI8r3lvA5BBxuxaNHVam2mo0DY+scpK17JxAUVg5ovo6LiAQwfDvRtXGG413Gqvo2t3HuZmFG5gZaarexulYYN9MnckvAOuLwCoMIe9ITrfx5PL9vMt09nesQuV0G8Tzvae+OfCFU/vDJftVypnJrJr9tX0b9orIeP86H8wMfNn7Kww5+iWvZWmvf1fsw/m5QO9Y/vdNzrb9vhwfn10f3h8PL19Wv5vXzfhp9OrKn3/Ew==);lineShape=1;" parent="1" vertex="1">
                    <mxGeometry x="29.139424778838475" y="122.15113898844288" width="2.889919381485828" height="1.904518784388776" as="geometry"/>
                </mxCell>
                <mxCell id="61" value="" style="shape=stencil(lVnZchQxDPyafVX5Pp45/oMqAtkiJFQI19/Tw8aTcc9Op3gLg2TLVqvV8p7im++3H77dnIL7/vT48OXm1/nj0+0pvj2FcL6/vXk8P+GvU3x3im8+PTzefH58+HH/8fLvbx8Wy+Wvrw8/lxV+X/x6tBAXr+D+PH+x6P59eH+xvzvfb+29pTzZV4v+2L4Vy26yx4d6bF+xfaT1vVi/Jiud7J8/XLUv3bqf7JuMpyTrme5Hru/Mzef1bqxw1SFny/MBfLCUhIO3Ot+QT+bEEVI2RzvUkZTrDm4EMByCs9qOHSLufD50iFaUQ7Yw3yrS1sUZYmJYRG89CIdorcwOxYraIVudQ8I1NJG42K2F2SFajuJaEx8amanKoXMeUpVnAJZSnRyyMy8yDbSW+Qw5mFfwzlwO2NOrenYWZvDlZk3sUCOjtYRx0YcMMGe6VKsqpMSUtOwp8lCD9XmH2syLEsWhU5tJRp8BEQdipWpO0B5oKcxn6Mi0opnOmV6YXzmkgZzVIVsTNZ3aLqRqTdxS8laIWrsMCSXaPDs0kThwhA/s8JzKqw5oToXZeyX06x5+MON2C+HgywDnxiEphzCwtjo0K+rUgyNW+2JB5CEM4GwSXQRYHVdDRwWK9R1jG8hLAtu7DtqDObl+pPtBt1IXOhhurbVuWcQTmFRbGyi5jusR7cZe9Wc0AbLXvRCCq/P6UoJxn8J5nSgC1FTl+1RsB4FDknARia84UM2EUdkHEe0R5wVC206z5aFyD2400/rFnFgfTTCyvUI0yDqwfVQ0NOp7S70CEX7kf2OvSMuNaDcVqZjajV60yZcSkMAL3SdqTtz/KrQ2CFWtJjBDoAKauE/wza5igoh/lTTbihSNqbDWxPqqGf+vvQ9XSlj1Md/4xEsGVBtLOxL1ktRRY9z3/NBhR83b7ViiiKKBvmaUelnF0NeJYKc1EfR12DF7VpoIQJoLcxlvBVBzHeutDlH2puJZRC0DsZpPI3fvmiWXQjlSSFCr6tDYgSbmAvZSDjs6goJXghwTAdVzcZJPkQcibCwRldTcadNcZE9Lgc+APbsYWzBdRhq9dBOMu4cUBKkKCF3KzSQAwFcREmqalGZaG++Rg6chu4wKOXKgoSIGOQKDWemWll4tOu1ClfQUkWVrhlagXoXuqB54lojnM/hqSewQob9m5vNRTrRIkyMHJ+ULgEBU2eSbHGZ2YvsyPhyyEiFJAgnlSxNFlBNLaYzUIJsPxm9ChZcCFdM3dQY3JPF1ORiH/n6xV/IIfYae5JxENeZcejqKcix9GfhWrpDcsky5/IaqBsDNzLp5pNUBdRJIA4FH9pUEzLiBI/u4e2QWRIQBt7J9V/MB5NmuwtRIBAeaqeGQ1UxU+O0ODioHfcd0/hUQoS/vQlLku2h20kfyvfK/X/pftccfLz8rfDrf3V1+ldj+P/8MgU+XnzDiu78=);lineShape=1;" parent="1" vertex="1">
                    <mxGeometry x="29.363796492162237" y="130.7596971942059" width="2.6680481538674052" height="3.3110277694465915" as="geometry"/>
                </mxCell>
                <mxCell id="62" value="" style="shape=stencil(lVjZUhtBDPwav6o0o7n0TMh/UIWJXXEwZUyOv48cZ41Hs27Yt2VQe3S0pN5dyd3r5uFlvYr8ejzsv69/bR+Pm5V8WcW4fd6sD9ujPa3kfiV3T/vD+tth//b8eP775eFkeXr6sf95+oXfZ1yjFE6gyH/OB0yl/Dv4ejbfbZ+vzAOTSmcfqSF7oZw6+0wtA/tMtbdvJMje/OfOPoTpF2YBMVDTHlCIBQAKRRdxIG63ARIoxR5QqCFApdjHLEIJuJSEah9DYsoAkK2orQc04ggAlWqf1pwpgzqXRLW/oRgx+DagBk+8ojCGWklKB6iZCgC0SNLf0C7knQcUyn0MLU8/MQ/QicsXQJsqMwvQ6LtBLQ2A3ppIaw8waoA6aKHqAJkYNRAzcV9qbaSgg9Si7vltJxH5pBTEAxCZtJKqByAyWdR5uEE/yKsbG+95mEcIxbroChs0YVEQ1qTDDShNRj9tSwrRLg58ttRMIXtAAXPDgubgAWh+W0f4tDYKyCWZiYFBkxr/0xADrHQlTgMAzG8ddqid/I/qVkOMADT7TlQbXGrLANaEuEe9S3aCYhiDVqqIGmNazcllhdNpLnyWGpcOuUm+4gFIzZzoPdxQEL3HBlISkNaZFlU4v5cD6gDIsEVtLbZhB1WQVtuawQFMk+FNXfo6NBxDVa/67M4MXDKpEJwWCBQAlypP7XKlNhRMDRNAsXfJ9EwD9DaJlXtqFCEG1DARl/olZ5oMDQGTidLXwVRfREK0+BtMV6KVFQfymXItIK1RvPqOFY570/cuS6a+BQGS30Cm7yNwyd5o3BAIEe4HU+tO9EEZmik6nTuNhPkMeRrJhJ81N9Hi3mag74PWw/UdmsAkCjTP3jyBjRD8mGCoXoKXwjzJyhuJdEzjaf/Mc3/GHIRq+jF6c9TsXm6aOXqb8u93DJd39eqXSYDvFzVzVSa0kpZ9IfjQ3B7eP0Y8bXe787eM6//7jxd2dP7wIfd/AQ==);lineShape=1;" parent="1" vertex="1">
                    <mxGeometry x="43.97036180594682" y="121.28397005704383" width="1.5799312805123216" height="8.036852224887834" as="geometry"/>
                </mxCell>
                <mxCell id="63" value="" style="shape=stencil(7VnJUtxADP2auap679aZkP+giiFMhTAUkO3vI2fSxlLbj5lbDtwGo9dWS0+rd/Hq5f7mab8L7uX1+fh1//Nw+3q/i592IRwe7/fPh1f5tYvXu3h1d3zef3k+fn+8Pf39dDNJTr++HX9MJ/w64aIn5yZUcL//PSEOfx98Psk/HB4X8qFRbUreByoRADKVoAAhUC4AECl7DWCqGQAcsVYpVngH38hHBUiFEriDz+RZAXIidgAQKGpAieSQSs6qVB0FoFKjWLQ8vkIlp+Wb709W5cVrWcsnahXJB+2DJicACyVLo1YoQHlfrXxJ2/KRElv5xoBEVIfzGZwfyA3yFZzvKQUrn8D5jlqx9mSP5O354hF4vuGb+DcB/zqbJlqEYS/yScuH7vEN+TDwk4E+gYK2f5WQA+fL7TSfS4by1eqTK3kQLxLA5gVJQhRcwEeqOs1F7olvHSAE1i6LOIQ9U9ExNkUFsmmwQexrTzPrgNTz7KIYVPSG1oO8A+TOKIpnp860gFETxUbNnI+iPnnK5gLiFvACKRSmOImVK8hb2VPTgSDU8iBwhGfVuDnDzCuVxfAiZXLg0oWJNUCqGXJzzdaq8k4PrNQGs1ZPAZTwNhevGSDRA8zKjrIhhpgBAdKQIBt0HHMP35lKCb9BqKbfwLkH4EbKGJIqF4iQV7BmH1cqwNUCyDorcevt2DqgEeu8N9kBcIPHiObOx3VAtZ3Lwg7riGLZNL0C0E/sXi+7RLbdxXtmEipc5gjpd8wd3nH13GCeySb5d9SJ5k3JLbNa9iUY1Tx3ODMgwmw/2SQPAKRS6/VpAWAcEL7ZO6DhgudsvTArKtNTyBmVSjf0uQBcRFdUktyHyDdemrHjRrMy9sPoOMZ+GKkxF5lzyTenqnPp3WBpvxzg+pQ5AwJUqUkhNyWlQmpIifJDk4veIEUwaJVqgv2SNMHJVOrSn6z3AsVm46n/QAAZHHTmkz63ArbmuS4v+twGAGlsgHyn4zog2OlcplE0bMfaR5dFE8cgREUBMw34ed5d73OLTffTgIPGydQ1XtwBWUkGSsOlGGGL5QcuSfOLWl25YtSA7GCNmxZBOs1khslYZqaouVRq7zS3lh5avuISV+xQXxkO9R9Lj4+lx/+99HCG/zj3irZmSZh6TG/wuWr9S+utxkY8BhO/DrYJflg25wADTKZxM1OlhDe1MiuYapOxSs22azKfwxWG7xRbpPaClyROZ5XJDIDVkracpmmggEpBsbswD5uEMCeRLu9w1A99jsNrpGr3ThJ3aH8vNGIjj+ZBkWerj0NfINjOj3i1Hp3dlTuY1UXe7oR6j7Qlb1ZCuBBPaz7DOLwE8339M8cAjOJLPwG9Ly8/3r433R0eHk6fq5b/t9+n5NHp21a8/gM=);lineShape=1;" parent="1" vertex="1">
                    <mxGeometry x="42.941601026097715" y="121.11663195706035" width="2.9126208481529874" height="2.442472723597465" as="geometry"/>
                </mxCell>
                <mxCell id="64" value="" style="shape=stencil(rVjZUlsxDP2avGpsyZueafsfzBBKppQwgW5/X6Wpw7V8cxpm+hYukq316MgbuXl5uH3ebji8vB72X7Y/dnevDxv5sGHePT1sD7tX+7WRjxu5ud8ftp8P+29Pd6e/n2+PksdfX/ffjyf8POlpJk1HLQ6/Tl8yNf3z4dNJ/nH3tJBvjVrw8gLkI2n18vGyfI39+jf5vwauypdCib18A/KRggzyhSJfls9MgZ088jcVqnGQbyTg/MTEoz2R4QWiPqCxkmag0CiOCpy6T+sKleJoEivlABQK6eiz2A0gaXZDHm94+3LR6fGGZHUCnE5CMpZ1StRQHhqFMUqpUgCFlO28MiooSYGVF9tYqUwRlXb1pZEzjFJlqq7XcOKquTiGtaReLOsKdt7YnaURg7C2yekq/c51hUA63lAbzMPRJNdwFgZgUs29cs4KtRfLeh7shjGsGklAHizTdUyc4o7L1nEjqBosIwWrVnEmFSqo49TXklaIq2J5cCYZ8oM8sHTcPSsoJaBgsFXVK6CeNmBMySso6LjsKyOGQAEBGdU8WQTk2SOryTOQD37WWkwZhChQdBE6Q/MF+TCVUQPtHEhcyhIVcL6VvTtfKIMiYiojRCpuzdRH5UKeQUWUqW24w8166/cRsJDPwB5d8ZdRfNYCyiBApqCu4nIv8msVzoTjWpNqn6VX+txIEZx2trLoAYRElrPo5RFhSx1ql/LAfqu5qSdhREmi97cAfy2eU0+ioTz3ZCEGBHvu+dwZ65WYIhinJ8xiCKKGicnLI5qTO+NY9uR/lLcpIJNBiLPYnGGdFFCEuIPmYt4rSIH1DDevkBAlnxi2BlhEKXve1bTXyXpULW2jSUZyEBUsgdLodMs985cWL0dBjHeh8W00ynWaMTvU+dVaZxwfNXVwWr/BWNEIjnYn6mXzweXhuE4CcClGQRz/FTjxjdllZ1KApN92gjQq2BHIB1tTZIySbQloItjG6RDpWCzgBqm+RXPsYVhXEO+D8dWMMCZMy1fqVGy945r3IQVYrTZ2dBz9trQKuqF4EBDc08dBOJa3QVsBuMTT4hK1z5ZLUSpOIWPonvls32QuLgkuqpDupOI3qUgMKi9nP5sDfBuxVnEgZnUCAjS/BWG6P781BfhsMb9lBTh55rcykwclNL/FYX91KmpsjzGV5s9PiP4aE8pOHr2h6ITwES7WJl+Lk0f1vFjfzj0GueaKgrzTIry4zx4naNAc0QzJzpyxDIF0rgj82vre199/y9uPt6fm+93j4+mlevl//zRtn07P2vLxNw==);lineShape=1;" parent="1" vertex="1">
                    <mxGeometry x="43.28179351544918" y="130.80604729551155" width="2.3922176438905547" height="3.3646778488604854" as="geometry"/>
                </mxCell>
            </root>
        </mxGraphModel>
    </diagram>
</mxfile>